<?xml version="1.0" encoding="UTF-8" standalone="no"?>
<svg
   height="235.30mm"
   viewBox="0.0 0.0 221.90 235.30"
   width="221.90mm"
   version="1.1"
   id="svg41"
   sodipodi:docname="ClosedBox.svg"
   inkscape:version="1.1.2 (0a00cf5339, 2022-02-04)"
   xmlns:inkscape="http://www.inkscape.org/namespaces/inkscape"
   xmlns:sodipodi="http://sodipodi.sourceforge.net/DTD/sodipodi-0.dtd"
   xmlns="http://www.w3.org/2000/svg"
   xmlns:svg="http://www.w3.org/2000/svg"
   xmlns:rdf="http://www.w3.org/1999/02/22-rdf-syntax-ns#"
   xmlns:cc="http://creativecommons.org/ns#"
   xmlns:dc="http://purl.org/dc/elements/1.1/">
  <defs
     id="defs45" />
  <sodipodi:namedview
     id="namedview43"
     pagecolor="#ffffff"
     bordercolor="#666666"
     borderopacity="1.0"
     inkscape:pageshadow="2"
     inkscape:pageopacity="0.0"
     inkscape:pagecheckerboard="0"
     inkscape:document-units="mm"
     showgrid="false"
     inkscape:zoom="0.98164576"
     inkscape:cx="505.78327"
     inkscape:cy="361.63758"
     inkscape:window-width="2560"
     inkscape:window-height="1367"
     inkscape:window-x="1920"
     inkscape:window-y="0"
     inkscape:window-maximized="1"
     inkscape:current-layer="svg41" />
  <!--
ClosedBox - Fully closed box


This box is more of a building block than a finished item.
Use a vector graphics program (like Inkscape) to add holes or adjust the base
plate.

See BasedBox for variant with a base.


Created with Boxes.py (https://boxes.hackerspace-bamberg.de/)
Creation date: 2024-08-15 18:53:23
Command line (remove spaces between dashes): boxes ClosedBox - -h=50.0
Url: https://boxes.hackerspace-bamberg.de/boxes.py/ClosedBox?FingerJoint_style=rectangular&FingerJoint_surroundingspaces=2.0&FingerJoint_bottom_lip=0.0&FingerJoint_edge_width=1.0&FingerJoint_extra_length=0.0&FingerJoint_finger=2.0&FingerJoint_play=0.0&FingerJoint_space=2.0&FingerJoint_width=1.0&x=100.0&y=100.0&h=50.0&outside=0&outside=1&thickness=3.0&format=svg&tabs=0.0&qr_code=0&debug=0&labels=0&labels=1&reference=100.0&inner_corners=loop&burn=0.1&language=de&render=2
Url short: https://boxes.hackerspace-bamberg.de/boxes.py/ClosedBox?h=50.0
SettingsUrl: https://boxes.hackerspace-bamberg.de/boxes.py/ClosedBox?FingerJoint_style=rectangular&FingerJoint_surroundingspaces=2.0&FingerJoint_bottom_lip=0.0&FingerJoint_edge_width=1.0&FingerJoint_extra_length=0.0&FingerJoint_finger=2.0&FingerJoint_play=0.0&FingerJoint_space=2.0&FingerJoint_width=1.0&x=100.0&y=100.0&h=50.0&outside=0&outside=1&thickness=3.0&format=svg&tabs=0.0&qr_code=0&debug=0&labels=0&labels=1&reference=100.0&inner_corners=loop&burn=0.1&language=de&render=2
SettingsUrl short: https://boxes.hackerspace-bamberg.de/boxes.py/ClosedBox?h=50.0
-->
  <title
     id="title2">ClosedBox</title>
  <metadata
     id="metadata4">
    <rdf:RDF>
      <cc:Work>
        <dc:title>Box - ClosedBox</dc:title>
        <dc:date>2024-08-15 18:53:23</dc:date>
        <dc:source>https://boxes.hackerspace-bamberg.de/boxes.py/ClosedBox?FingerJoint_style=rectangular&amp;FingerJoint_surroundingspaces=2.0&amp;FingerJoint_bottom_lip=0.0&amp;FingerJoint_edge_width=1.0&amp;FingerJoint_extra_length=0.0&amp;FingerJoint_finger=2.0&amp;FingerJoint_play=0.0&amp;FingerJoint_space=2.0&amp;FingerJoint_width=1.0&amp;x=100.0&amp;y=100.0&amp;h=50.0&amp;outside=0&amp;outside=1&amp;thickness=3.0&amp;format=svg&amp;tabs=0.0&amp;qr_code=0&amp;debug=0&amp;labels=0&amp;labels=1&amp;reference=100.0&amp;inner_corners=loop&amp;burn=0.1&amp;language=de&amp;render=2</dc:source>
        <dc:source>https://boxes.hackerspace-bamberg.de/boxes.py/ClosedBox?h=50.0</dc:source>
        <dc:description>Fully closed box

This box is more of a building block than a finished item.
Use a vector graphics program (like Inkscape) to add holes or adjust the base
plate.

See BasedBox for variant with a base.

Created with Boxes.py (https://boxes.hackerspace-bamberg.de/)
Command line: boxes ClosedBox --FingerJoint_style=rectangular --FingerJoint_surroundingspaces=2.0 --FingerJoint_bottom_lip=0.0 --FingerJoint_edge_width=1.0 --FingerJoint_extra_length=0.0 --FingerJoint_finger=2.0 --FingerJoint_play=0.0 --FingerJoint_space=2.0 --FingerJoint_width=1.0 --x=100.0 --y=100.0 --h=50.0 --outside=0 --outside=1 --thickness=3.0 --format=svg --tabs=0.0 --qr_code=0 --debug=0 --labels=0 --labels=1 --reference=100.0 --inner_corners=loop --burn=0.1
Command line short: boxes ClosedBox --h=50.0
Url: https://boxes.hackerspace-bamberg.de/boxes.py/ClosedBox?FingerJoint_style=rectangular&amp;FingerJoint_surroundingspaces=2.0&amp;FingerJoint_bottom_lip=0.0&amp;FingerJoint_edge_width=1.0&amp;FingerJoint_extra_length=0.0&amp;FingerJoint_finger=2.0&amp;FingerJoint_play=0.0&amp;FingerJoint_space=2.0&amp;FingerJoint_width=1.0&amp;x=100.0&amp;y=100.0&amp;h=50.0&amp;outside=0&amp;outside=1&amp;thickness=3.0&amp;format=svg&amp;tabs=0.0&amp;qr_code=0&amp;debug=0&amp;labels=0&amp;labels=1&amp;reference=100.0&amp;inner_corners=loop&amp;burn=0.1&amp;language=de&amp;render=2
Url short: https://boxes.hackerspace-bamberg.de/boxes.py/ClosedBox?h=50.0
SettingsUrl: https://boxes.hackerspace-bamberg.de/boxes.py/ClosedBox?FingerJoint_style=rectangular&amp;FingerJoint_surroundingspaces=2.0&amp;FingerJoint_bottom_lip=0.0&amp;FingerJoint_edge_width=1.0&amp;FingerJoint_extra_length=0.0&amp;FingerJoint_finger=2.0&amp;FingerJoint_play=0.0&amp;FingerJoint_space=2.0&amp;FingerJoint_width=1.0&amp;x=100.0&amp;y=100.0&amp;h=50.0&amp;outside=0&amp;outside=1&amp;thickness=3.0&amp;format=svg&amp;tabs=0.0&amp;qr_code=0&amp;debug=0&amp;labels=0&amp;labels=1&amp;reference=100.0&amp;inner_corners=loop&amp;burn=0.1&amp;language=de&amp;render=2
SettingsUrl short: https://boxes.hackerspace-bamberg.de/boxes.py/ClosedBox?h=50.0
</dc:description>
      </cc:Work>
    </rdf:RDF>
  </metadata>
  <g
     id="p-0"
     style="fill:none;stroke-linecap:round;stroke-linejoin:round;">
    <path
       d="M 10.100 225.300 H 110.100 V 215.300 H 10.100 V 225.300 Z"
       stroke="rgb(0,0,0)"
       stroke-width="0.20"
       id="path6" />
    <text
       dominant-baseline="hanging"
       font-size="6px"
       style="font-family: sans-serif ; font-weight: normal; font-style: normal; fill: rgb(255,0,0)"
       text-anchor="middle"
       transform="matrix( 1.000 0.000 0.000 1.000 60.100 217.300 )"
       id="text8">100.0mm, burn:0.10mm</text>
  </g>
  <g
     id="p-1"
     style="fill:none;stroke-linecap:round;stroke-linejoin:round;">
    <text
       dominant-baseline="hanging"
       font-size="4px"
       style="font-family: sans-serif ; font-weight: normal; font-style: normal; fill: rgb(255,0,0)"
       text-anchor="middle"
       transform="matrix( 1.000 0.000 0.000 1.000 60.100 186.600 )"
       id="text11">Wall 1</text>
    <path
       d="M 13.100 213.600 H 21.100 C 21.155 213.600 21.200 213.555 21.200 213.500 V 210.600 C 21.200 210.500 21.100 210.600 21.200 210.600 H 27.000 C 27.100 210.600 27.000 210.500 27.000 210.600 V 213.500 C 27.000 213.555 27.045 213.600 27.100 213.600 H 33.100 C 33.155 213.600 33.200 213.555 33.200 213.500 V 210.600 C 33.200 210.500 33.100 210.600 33.200 210.600 H 39.000 C 39.100 210.600 39.000 210.500 39.000 210.600 V 213.500 C 39.000 213.555 39.045 213.600 39.100 213.600 H 45.100 C 45.155 213.600 45.200 213.555 45.200 213.500 V 210.600 C 45.200 210.500 45.100 210.600 45.200 210.600 H 51.000 C 51.100 210.600 51.000 210.500 51.000 210.600 V 213.500 C 51.000 213.555 51.045 213.600 51.100 213.600 H 57.100 C 57.155 213.600 57.200 213.555 57.200 213.500 V 210.600 C 57.200 210.500 57.100 210.600 57.200 210.600 H 63.000 C 63.100 210.600 63.000 210.500 63.000 210.600 V 213.500 C 63.000 213.555 63.045 213.600 63.100 213.600 H 69.100 C 69.155 213.600 69.200 213.555 69.200 213.500 V 210.600 C 69.200 210.500 69.100 210.600 69.200 210.600 H 75.000 C 75.100 210.600 75.000 210.500 75.000 210.600 V 213.500 C 75.000 213.555 75.045 213.600 75.100 213.600 H 81.100 C 81.155 213.600 81.200 213.555 81.200 213.500 V 210.600 C 81.200 210.500 81.100 210.600 81.200 210.600 H 87.000 C 87.100 210.600 87.000 210.500 87.000 210.600 V 213.500 C 87.000 213.555 87.045 213.600 87.100 213.600 H 93.100 C 93.155 213.600 93.200 213.555 93.200 213.500 V 210.600 C 93.200 210.500 93.100 210.600 93.200 210.600 H 99.000 C 99.100 210.600 99.000 210.500 99.000 210.600 V 213.500 C 99.000 213.555 99.045 213.600 99.100 213.600 H 107.100 H 110.100 C 110.155 213.600 110.200 213.555 110.200 213.500 V 210.500 V 203.500 C 110.200 203.445 110.155 203.400 110.100 203.400 H 107.200 C 107.100 203.400 107.200 203.500 107.200 203.400 V 197.600 C 107.200 197.500 107.100 197.600 107.200 197.600 H 110.100 C 110.155 197.600 110.200 197.555 110.200 197.500 V 191.500 C 110.200 191.445 110.155 191.400 110.100 191.400 H 107.200 C 107.100 191.400 107.200 191.500 107.200 191.400 V 185.600 C 107.200 185.500 107.100 185.600 107.200 185.600 H 110.100 C 110.155 185.600 110.200 185.555 110.200 185.500 V 179.500 C 110.200 179.445 110.155 179.400 110.100 179.400 H 107.200 C 107.100 179.400 107.200 179.500 107.200 179.400 V 173.600 C 107.200 173.500 107.100 173.600 107.200 173.600 H 110.100 C 110.155 173.600 110.200 173.555 110.200 173.500 V 166.500 V 163.500 C 110.200 163.445 110.155 163.400 110.100 163.400 H 107.100 H 99.100 C 99.045 163.400 99.000 163.445 99.000 163.500 V 166.400 C 99.000 166.500 99.100 166.400 99.000 166.400 H 93.200 C 93.100 166.400 93.200 166.500 93.200 166.400 V 163.500 C 93.200 163.445 93.155 163.400 93.100 163.400 H 87.100 C 87.045 163.400 87.000 163.445 87.000 163.500 V 166.400 C 87.000 166.500 87.100 166.400 87.000 166.400 H 81.200 C 81.100 166.400 81.200 166.500 81.200 166.400 V 163.500 C 81.200 163.445 81.155 163.400 81.100 163.400 H 75.100 C 75.045 163.400 75.000 163.445 75.000 163.500 V 166.400 C 75.000 166.500 75.100 166.400 75.000 166.400 H 69.200 C 69.100 166.400 69.200 166.500 69.200 166.400 V 163.500 C 69.200 163.445 69.155 163.400 69.100 163.400 H 63.100 C 63.045 163.400 63.000 163.445 63.000 163.500 V 166.400 C 63.000 166.500 63.100 166.400 63.000 166.400 H 57.200 C 57.100 166.400 57.200 166.500 57.200 166.400 V 163.500 C 57.200 163.445 57.155 163.400 57.100 163.400 H 51.100 C 51.045 163.400 51.000 163.445 51.000 163.500 V 166.400 C 51.000 166.500 51.100 166.400 51.000 166.400 H 45.200 C 45.100 166.400 45.200 166.500 45.200 166.400 V 163.500 C 45.200 163.445 45.155 163.400 45.100 163.400 H 39.100 C 39.045 163.400 39.000 163.445 39.000 163.500 V 166.400 C 39.000 166.500 39.100 166.400 39.000 166.400 H 33.200 C 33.100 166.400 33.200 166.500 33.200 166.400 V 163.500 C 33.200 163.445 33.155 163.400 33.100 163.400 H 27.100 C 27.045 163.400 27.000 163.445 27.000 163.500 V 166.400 C 27.000 166.500 27.100 166.400 27.000 166.400 H 21.200 C 21.100 166.400 21.200 166.500 21.200 166.400 V 163.500 C 21.200 163.445 21.155 163.400 21.100 163.400 H 13.100 H 10.100 C 10.045 163.400 10.000 163.445 10.000 163.500 V 166.500 V 173.500 C 10.000 173.555 10.045 173.600 10.100 173.600 H 13.000 C 13.100 173.600 13.000 173.500 13.000 173.600 V 179.400 C 13.000 179.500 13.100 179.400 13.000 179.400 H 10.100 C 10.045 179.400 10.000 179.445 10.000 179.500 V 185.500 C 10.000 185.555 10.045 185.600 10.100 185.600 H 13.000 C 13.100 185.600 13.000 185.500 13.000 185.600 V 191.400 C 13.000 191.500 13.100 191.400 13.000 191.400 H 10.100 C 10.045 191.400 10.000 191.445 10.000 191.500 V 197.500 C 10.000 197.555 10.045 197.600 10.100 197.600 H 13.000 C 13.100 197.600 13.000 197.500 13.000 197.600 V 203.400 C 13.000 203.500 13.100 203.400 13.000 203.400 H 10.100 C 10.045 203.400 10.000 203.445 10.000 203.500 V 210.500 V 213.500 C 10.000 213.555 10.045 213.600 10.100 213.600 H 13.100"
       stroke="rgb(0,0,0)"
       stroke-width="0.20"
       id="path13" />
  </g>
  <g
     id="p-2"
     style="fill:none;stroke-linecap:round;stroke-linejoin:round;">
    <text
       dominant-baseline="hanging"
       font-size="4px"
       style="font-family: sans-serif ; font-weight: normal; font-style: normal; fill: rgb(255,0,0)"
       text-anchor="middle"
       transform="matrix( 1.000 0.000 0.000 1.000 161.800 186.600 )"
       id="text16">Wall 2</text>
    <path
       d="M 114.800 213.600 H 122.800 C 122.855 213.600 122.900 213.555 122.900 213.500 V 210.600 C 122.900 210.500 122.800 210.600 122.900 210.600 H 128.700 C 128.800 210.600 128.700 210.500 128.700 210.600 V 213.500 C 128.700 213.555 128.745 213.600 128.800 213.600 H 134.800 C 134.855 213.600 134.900 213.555 134.900 213.500 V 210.600 C 134.900 210.500 134.800 210.600 134.900 210.600 H 140.700 C 140.800 210.600 140.700 210.500 140.700 210.600 V 213.500 C 140.700 213.555 140.745 213.600 140.800 213.600 H 146.800 C 146.855 213.600 146.900 213.555 146.900 213.500 V 210.600 C 146.900 210.500 146.800 210.600 146.900 210.600 H 152.700 C 152.800 210.600 152.700 210.500 152.700 210.600 V 213.500 C 152.700 213.555 152.745 213.600 152.800 213.600 H 158.800 C 158.855 213.600 158.900 213.555 158.900 213.500 V 210.600 C 158.900 210.500 158.800 210.600 158.900 210.600 H 164.700 C 164.800 210.600 164.700 210.500 164.700 210.600 V 213.500 C 164.700 213.555 164.745 213.600 164.800 213.600 H 170.800 C 170.855 213.600 170.900 213.555 170.900 213.500 V 210.600 C 170.900 210.500 170.800 210.600 170.900 210.600 H 176.700 C 176.800 210.600 176.700 210.500 176.700 210.600 V 213.500 C 176.700 213.555 176.745 213.600 176.800 213.600 H 182.800 C 182.855 213.600 182.900 213.555 182.900 213.500 V 210.600 C 182.900 210.500 182.800 210.600 182.900 210.600 H 188.700 C 188.800 210.600 188.700 210.500 188.700 210.600 V 213.500 C 188.700 213.555 188.745 213.600 188.800 213.600 H 194.800 C 194.855 213.600 194.900 213.555 194.900 213.500 V 210.600 C 194.900 210.500 194.800 210.600 194.900 210.600 H 200.700 C 200.800 210.600 200.700 210.500 200.700 210.600 V 213.500 C 200.700 213.555 200.745 213.600 200.800 213.600 H 208.800 C 208.855 213.600 208.900 213.555 208.900 213.500 V 210.500 V 203.600 C 208.900 203.500 208.800 203.600 208.900 203.600 H 211.800 C 211.855 203.600 211.900 203.555 211.900 203.500 V 197.500 C 211.900 197.445 211.855 197.400 211.800 197.400 H 208.900 C 208.800 197.400 208.900 197.500 208.900 197.400 V 191.600 C 208.900 191.500 208.800 191.600 208.900 191.600 H 211.800 C 211.855 191.600 211.900 191.555 211.900 191.500 V 185.500 C 211.900 185.445 211.855 185.400 211.800 185.400 H 208.900 C 208.800 185.400 208.900 185.500 208.900 185.400 V 179.600 C 208.900 179.500 208.800 179.600 208.900 179.600 H 211.800 C 211.855 179.600 211.900 179.555 211.900 179.500 V 173.500 C 211.900 173.445 211.855 173.400 211.800 173.400 H 208.900 C 208.800 173.400 208.900 173.500 208.900 173.400 V 166.500 V 163.500 C 208.900 163.445 208.855 163.400 208.800 163.400 H 200.800 C 200.745 163.400 200.700 163.445 200.700 163.500 V 166.400 C 200.700 166.500 200.800 166.400 200.700 166.400 H 194.900 C 194.800 166.400 194.900 166.500 194.900 166.400 V 163.500 C 194.900 163.445 194.855 163.400 194.800 163.400 H 188.800 C 188.745 163.400 188.700 163.445 188.700 163.500 V 166.400 C 188.700 166.500 188.800 166.400 188.700 166.400 H 182.900 C 182.800 166.400 182.900 166.500 182.900 166.400 V 163.500 C 182.900 163.445 182.855 163.400 182.800 163.400 H 176.800 C 176.745 163.400 176.700 163.445 176.700 163.500 V 166.400 C 176.700 166.500 176.800 166.400 176.700 166.400 H 170.900 C 170.800 166.400 170.900 166.500 170.900 166.400 V 163.500 C 170.900 163.445 170.855 163.400 170.800 163.400 H 164.800 C 164.745 163.400 164.700 163.445 164.700 163.500 V 166.400 C 164.700 166.500 164.800 166.400 164.700 166.400 H 158.900 C 158.800 166.400 158.900 166.500 158.900 166.400 V 163.500 C 158.900 163.445 158.855 163.400 158.800 163.400 H 152.800 C 152.745 163.400 152.700 163.445 152.700 163.500 V 166.400 C 152.700 166.500 152.800 166.400 152.700 166.400 H 146.900 C 146.800 166.400 146.900 166.500 146.900 166.400 V 163.500 C 146.900 163.445 146.855 163.400 146.800 163.400 H 140.800 C 140.745 163.400 140.700 163.445 140.700 163.500 V 166.400 C 140.700 166.500 140.800 166.400 140.700 166.400 H 134.900 C 134.800 166.400 134.900 166.500 134.900 166.400 V 163.500 C 134.900 163.445 134.855 163.400 134.800 163.400 H 128.800 C 128.745 163.400 128.700 163.445 128.700 163.500 V 166.400 C 128.700 166.500 128.800 166.400 128.700 166.400 H 122.900 C 122.800 166.400 122.900 166.500 122.900 166.400 V 163.500 C 122.900 163.445 122.855 163.400 122.800 163.400 H 114.800 C 114.745 163.400 114.700 163.445 114.700 163.500 V 166.500 V 173.400 C 114.700 173.500 114.800 173.400 114.700 173.400 H 111.800 C 111.745 173.400 111.700 173.445 111.700 173.500 V 179.500 C 111.700 179.555 111.745 179.600 111.800 179.600 H 114.700 C 114.800 179.600 114.700 179.500 114.700 179.600 V 185.400 C 114.700 185.500 114.800 185.400 114.700 185.400 H 111.800 C 111.745 185.400 111.700 185.445 111.700 185.500 V 191.500 C 111.700 191.555 111.745 191.600 111.800 191.600 H 114.700 C 114.800 191.600 114.700 191.500 114.700 191.600 V 197.400 C 114.700 197.500 114.800 197.400 114.700 197.400 H 111.800 C 111.745 197.400 111.700 197.445 111.700 197.500 V 203.500 C 111.700 203.555 111.745 203.600 111.800 203.600 H 114.700 C 114.800 203.600 114.700 203.500 114.700 203.600 V 210.500 V 213.500 C 114.700 213.555 114.745 213.600 114.800 213.600"
       stroke="rgb(0,0,0)"
       stroke-width="0.20"
       id="path18" />
  </g>
  <g
     id="p-3"
     style="fill:none;stroke-linecap:round;stroke-linejoin:round;">
    <text
       dominant-baseline="hanging"
       font-size="4px"
       style="font-family: sans-serif ; font-weight: normal; font-style: normal; fill: rgb(255,0,0)"
       text-anchor="middle"
       transform="matrix( 1.000 0.000 0.000 1.000 161.800 134.900 )"
       id="text21">Wall 4</text>
    <path
       d="M 114.800 161.900 H 122.800 C 122.855 161.900 122.900 161.855 122.900 161.800 V 158.900 C 122.900 158.800 122.800 158.900 122.900 158.900 H 128.700 C 128.800 158.900 128.700 158.800 128.700 158.900 V 161.800 C 128.700 161.855 128.745 161.900 128.800 161.900 H 134.800 C 134.855 161.900 134.900 161.855 134.900 161.800 V 158.900 C 134.900 158.800 134.800 158.900 134.900 158.900 H 140.700 C 140.800 158.900 140.700 158.800 140.700 158.900 V 161.800 C 140.700 161.855 140.745 161.900 140.800 161.900 H 146.800 C 146.855 161.900 146.900 161.855 146.900 161.800 V 158.900 C 146.900 158.800 146.800 158.900 146.900 158.900 H 152.700 C 152.800 158.900 152.700 158.800 152.700 158.900 V 161.800 C 152.700 161.855 152.745 161.900 152.800 161.900 H 158.800 C 158.855 161.900 158.900 161.855 158.900 161.800 V 158.900 C 158.900 158.800 158.800 158.900 158.900 158.900 H 164.700 C 164.800 158.900 164.700 158.800 164.700 158.900 V 161.800 C 164.700 161.855 164.745 161.900 164.800 161.900 H 170.800 C 170.855 161.900 170.900 161.855 170.900 161.800 V 158.900 C 170.900 158.800 170.800 158.900 170.900 158.900 H 176.700 C 176.800 158.900 176.700 158.800 176.700 158.900 V 161.800 C 176.700 161.855 176.745 161.900 176.800 161.900 H 182.800 C 182.855 161.900 182.900 161.855 182.900 161.800 V 158.900 C 182.900 158.800 182.800 158.900 182.900 158.900 H 188.700 C 188.800 158.900 188.700 158.800 188.700 158.900 V 161.800 C 188.700 161.855 188.745 161.900 188.800 161.900 H 194.800 C 194.855 161.900 194.900 161.855 194.900 161.800 V 158.900 C 194.900 158.800 194.800 158.900 194.900 158.900 H 200.700 C 200.800 158.900 200.700 158.800 200.700 158.900 V 161.800 C 200.700 161.855 200.745 161.900 200.800 161.900 H 208.800 C 208.855 161.900 208.900 161.855 208.900 161.800 V 158.800 V 151.900 C 208.900 151.800 208.800 151.900 208.900 151.900 H 211.800 C 211.855 151.900 211.900 151.855 211.900 151.800 V 145.800 C 211.900 145.745 211.855 145.700 211.800 145.700 H 208.900 C 208.800 145.700 208.900 145.800 208.900 145.700 V 139.900 C 208.900 139.800 208.800 139.900 208.900 139.900 H 211.800 C 211.855 139.900 211.900 139.855 211.900 139.800 V 133.800 C 211.900 133.745 211.855 133.700 211.800 133.700 H 208.900 C 208.800 133.700 208.900 133.800 208.900 133.700 V 127.900 C 208.900 127.800 208.800 127.900 208.900 127.900 H 211.800 C 211.855 127.900 211.900 127.855 211.900 127.800 V 121.800 C 211.900 121.745 211.855 121.700 211.800 121.700 H 208.900 C 208.800 121.700 208.900 121.800 208.900 121.700 V 114.800 V 111.800 C 208.900 111.745 208.855 111.700 208.800 111.700 H 200.800 C 200.745 111.700 200.700 111.745 200.700 111.800 V 114.700 C 200.700 114.800 200.800 114.700 200.700 114.700 H 194.900 C 194.800 114.700 194.900 114.800 194.900 114.700 V 111.800 C 194.900 111.745 194.855 111.700 194.800 111.700 H 188.800 C 188.745 111.700 188.700 111.745 188.700 111.800 V 114.700 C 188.700 114.800 188.800 114.700 188.700 114.700 H 182.900 C 182.800 114.700 182.900 114.800 182.900 114.700 V 111.800 C 182.900 111.745 182.855 111.700 182.800 111.700 H 176.800 C 176.745 111.700 176.700 111.745 176.700 111.800 V 114.700 C 176.700 114.800 176.800 114.700 176.700 114.700 H 170.900 C 170.800 114.700 170.900 114.800 170.900 114.700 V 111.800 C 170.900 111.745 170.855 111.700 170.800 111.700 H 164.800 C 164.745 111.700 164.700 111.745 164.700 111.800 V 114.700 C 164.700 114.800 164.800 114.700 164.700 114.700 H 158.900 C 158.800 114.700 158.900 114.800 158.900 114.700 V 111.800 C 158.900 111.745 158.855 111.700 158.800 111.700 H 152.800 C 152.745 111.700 152.700 111.745 152.700 111.800 V 114.700 C 152.700 114.800 152.800 114.700 152.700 114.700 H 146.900 C 146.800 114.700 146.900 114.800 146.900 114.700 V 111.800 C 146.900 111.745 146.855 111.700 146.800 111.700 H 140.800 C 140.745 111.700 140.700 111.745 140.700 111.800 V 114.700 C 140.700 114.800 140.800 114.700 140.700 114.700 H 134.900 C 134.800 114.700 134.900 114.800 134.900 114.700 V 111.800 C 134.900 111.745 134.855 111.700 134.800 111.700 H 128.800 C 128.745 111.700 128.700 111.745 128.700 111.800 V 114.700 C 128.700 114.800 128.800 114.700 128.700 114.700 H 122.900 C 122.800 114.700 122.900 114.800 122.900 114.700 V 111.800 C 122.900 111.745 122.855 111.700 122.800 111.700 H 114.800 C 114.745 111.700 114.700 111.745 114.700 111.800 V 114.800 V 121.700 C 114.700 121.800 114.800 121.700 114.700 121.700 H 111.800 C 111.745 121.700 111.700 121.745 111.700 121.800 V 127.800 C 111.700 127.855 111.745 127.900 111.800 127.900 H 114.700 C 114.800 127.900 114.700 127.800 114.700 127.900 V 133.700 C 114.700 133.800 114.800 133.700 114.700 133.700 H 111.800 C 111.745 133.700 111.700 133.745 111.700 133.800 V 139.800 C 111.700 139.855 111.745 139.900 111.800 139.900 H 114.700 C 114.800 139.900 114.700 139.800 114.700 139.900 V 145.700 C 114.700 145.800 114.800 145.700 114.700 145.700 H 111.800 C 111.745 145.700 111.700 145.745 111.700 145.800 V 151.800 C 111.700 151.855 111.745 151.900 111.800 151.900 H 114.700 C 114.800 151.900 114.700 151.800 114.700 151.900 V 158.800 V 161.800 C 114.700 161.855 114.745 161.900 114.800 161.900"
       stroke="rgb(0,0,0)"
       stroke-width="0.20"
       id="path23" />
  </g>
  <g
     id="p-4"
     style="fill:none;stroke-linecap:round;stroke-linejoin:round;">
    <text
       dominant-baseline="hanging"
       font-size="4px"
       style="font-family: sans-serif ; font-weight: normal; font-style: normal; fill: rgb(255,0,0)"
       text-anchor="middle"
       transform="matrix( 1.000 0.000 0.000 1.000 60.100 134.900 )"
       id="text26">Wall 3</text>
    <path
       d="M 13.100 161.900 H 21.100 C 21.155 161.900 21.200 161.855 21.200 161.800 V 158.900 C 21.200 158.800 21.100 158.900 21.200 158.900 H 27.000 C 27.100 158.900 27.000 158.800 27.000 158.900 V 161.800 C 27.000 161.855 27.045 161.900 27.100 161.900 H 33.100 C 33.155 161.900 33.200 161.855 33.200 161.800 V 158.900 C 33.200 158.800 33.100 158.900 33.200 158.900 H 39.000 C 39.100 158.900 39.000 158.800 39.000 158.900 V 161.800 C 39.000 161.855 39.045 161.900 39.100 161.900 H 45.100 C 45.155 161.900 45.200 161.855 45.200 161.800 V 158.900 C 45.200 158.800 45.100 158.900 45.200 158.900 H 51.000 C 51.100 158.900 51.000 158.800 51.000 158.900 V 161.800 C 51.000 161.855 51.045 161.900 51.100 161.900 H 57.100 C 57.155 161.900 57.200 161.855 57.200 161.800 V 158.900 C 57.200 158.800 57.100 158.900 57.200 158.900 H 63.000 C 63.100 158.900 63.000 158.800 63.000 158.900 V 161.800 C 63.000 161.855 63.045 161.900 63.100 161.900 H 69.100 C 69.155 161.900 69.200 161.855 69.200 161.800 V 158.900 C 69.200 158.800 69.100 158.900 69.200 158.900 H 75.000 C 75.100 158.900 75.000 158.800 75.000 158.900 V 161.800 C 75.000 161.855 75.045 161.900 75.100 161.900 H 81.100 C 81.155 161.900 81.200 161.855 81.200 161.800 V 158.900 C 81.200 158.800 81.100 158.900 81.200 158.900 H 87.000 C 87.100 158.900 87.000 158.800 87.000 158.900 V 161.800 C 87.000 161.855 87.045 161.900 87.100 161.900 H 93.100 C 93.155 161.900 93.200 161.855 93.200 161.800 V 158.900 C 93.200 158.800 93.100 158.900 93.200 158.900 H 99.000 C 99.100 158.900 99.000 158.800 99.000 158.900 V 161.800 C 99.000 161.855 99.045 161.900 99.100 161.900 H 107.100 H 110.100 C 110.155 161.900 110.200 161.855 110.200 161.800 V 158.800 V 151.800 C 110.200 151.745 110.155 151.700 110.100 151.700 H 107.200 C 107.100 151.700 107.200 151.800 107.200 151.700 V 145.900 C 107.200 145.800 107.100 145.900 107.200 145.900 H 110.100 C 110.155 145.900 110.200 145.855 110.200 145.800 V 139.800 C 110.200 139.745 110.155 139.700 110.100 139.700 H 107.200 C 107.100 139.700 107.200 139.800 107.200 139.700 V 133.900 C 107.200 133.800 107.100 133.900 107.200 133.900 H 110.100 C 110.155 133.900 110.200 133.855 110.200 133.800 V 127.800 C 110.200 127.745 110.155 127.700 110.100 127.700 H 107.200 C 107.100 127.700 107.200 127.800 107.200 127.700 V 121.900 C 107.200 121.800 107.100 121.900 107.200 121.900 H 110.100 C 110.155 121.900 110.200 121.855 110.200 121.800 V 114.800 V 111.800 C 110.200 111.745 110.155 111.700 110.100 111.700 H 107.100 H 99.100 C 99.045 111.700 99.000 111.745 99.000 111.800 V 114.700 C 99.000 114.800 99.100 114.700 99.000 114.700 H 93.200 C 93.100 114.700 93.200 114.800 93.200 114.700 V 111.800 C 93.200 111.745 93.155 111.700 93.100 111.700 H 87.100 C 87.045 111.700 87.000 111.745 87.000 111.800 V 114.700 C 87.000 114.800 87.100 114.700 87.000 114.700 H 81.200 C 81.100 114.700 81.200 114.800 81.200 114.700 V 111.800 C 81.200 111.745 81.155 111.700 81.100 111.700 H 75.100 C 75.045 111.700 75.000 111.745 75.000 111.800 V 114.700 C 75.000 114.800 75.100 114.700 75.000 114.700 H 69.200 C 69.100 114.700 69.200 114.800 69.200 114.700 V 111.800 C 69.200 111.745 69.155 111.700 69.100 111.700 H 63.100 C 63.045 111.700 63.000 111.745 63.000 111.800 V 114.700 C 63.000 114.800 63.100 114.700 63.000 114.700 H 57.200 C 57.100 114.700 57.200 114.800 57.200 114.700 V 111.800 C 57.200 111.745 57.155 111.700 57.100 111.700 H 51.100 C 51.045 111.700 51.000 111.745 51.000 111.800 V 114.700 C 51.000 114.800 51.100 114.700 51.000 114.700 H 45.200 C 45.100 114.700 45.200 114.800 45.200 114.700 V 111.800 C 45.200 111.745 45.155 111.700 45.100 111.700 H 39.100 C 39.045 111.700 39.000 111.745 39.000 111.800 V 114.700 C 39.000 114.800 39.100 114.700 39.000 114.700 H 33.200 C 33.100 114.700 33.200 114.800 33.200 114.700 V 111.800 C 33.200 111.745 33.155 111.700 33.100 111.700 H 27.100 C 27.045 111.700 27.000 111.745 27.000 111.800 V 114.700 C 27.000 114.800 27.100 114.700 27.000 114.700 H 21.200 C 21.100 114.700 21.200 114.800 21.200 114.700 V 111.800 C 21.200 111.745 21.155 111.700 21.100 111.700 H 13.100 H 10.100 C 10.045 111.700 10.000 111.745 10.000 111.800 V 114.800 V 121.800 C 10.000 121.855 10.045 121.900 10.100 121.900 H 13.000 C 13.100 121.900 13.000 121.800 13.000 121.900 V 127.700 C 13.000 127.800 13.100 127.700 13.000 127.700 H 10.100 C 10.045 127.700 10.000 127.745 10.000 127.800 V 133.800 C 10.000 133.855 10.045 133.900 10.100 133.900 H 13.000 C 13.100 133.900 13.000 133.800 13.000 133.900 V 139.700 C 13.000 139.800 13.100 139.700 13.000 139.700 H 10.100 C 10.045 139.700 10.000 139.745 10.000 139.800 V 145.800 C 10.000 145.855 10.045 145.900 10.100 145.900 H 13.000 C 13.100 145.900 13.000 145.800 13.000 145.900 V 151.700 C 13.000 151.800 13.100 151.700 13.000 151.700 H 10.100 C 10.045 151.700 10.000 151.745 10.000 151.800 V 158.800 V 161.800 C 10.000 161.855 10.045 161.900 10.100 161.900 H 13.100"
       stroke="rgb(0,0,0)"
       stroke-width="0.20"
       id="path28" />
  </g>
  <g
     id="p-6"
     style="fill:none;stroke-linecap:round;stroke-linejoin:round;">
    <text
       dominant-baseline="hanging"
       font-size="4px"
       style="font-family: sans-serif ; font-weight: normal; font-style: normal; fill: rgb(255,0,0)"
       text-anchor="middle"
       transform="matrix( 1.000 0.000 0.000 1.000 161.800 58.200 )"
       id="text36">Bottom</text>
    <path
       d="M 114.800 107.200 H 122.700 C 122.800 107.200 122.700 107.100 122.700 107.200 V 110.100 C 122.700 110.155 122.745 110.200 122.800 110.200 H 128.800 C 128.855 110.200 128.900 110.155 128.900 110.100 V 107.200 C 128.900 107.100 128.800 107.200 128.900 107.200 H 134.700 C 134.800 107.200 134.700 107.100 134.700 107.200 V 110.100 C 134.700 110.155 134.745 110.200 134.800 110.200 H 140.800 C 140.855 110.200 140.900 110.155 140.900 110.100 V 107.200 C 140.900 107.100 140.800 107.200 140.900 107.200 H 146.700 C 146.800 107.200 146.700 107.100 146.700 107.200 V 110.100 C 146.700 110.155 146.745 110.200 146.800 110.200 H 152.800 C 152.855 110.200 152.900 110.155 152.900 110.100 V 107.200 C 152.900 107.100 152.800 107.200 152.900 107.200 H 158.700 C 158.800 107.200 158.700 107.100 158.700 107.200 V 110.100 C 158.700 110.155 158.745 110.200 158.800 110.200 H 164.800 C 164.855 110.200 164.900 110.155 164.900 110.100 V 107.200 C 164.900 107.100 164.800 107.200 164.900 107.200 H 170.700 C 170.800 107.200 170.700 107.100 170.700 107.200 V 110.100 C 170.700 110.155 170.745 110.200 170.800 110.200 H 176.800 C 176.855 110.200 176.900 110.155 176.900 110.100 V 107.200 C 176.900 107.100 176.800 107.200 176.900 107.200 H 182.700 C 182.800 107.200 182.700 107.100 182.700 107.200 V 110.100 C 182.700 110.155 182.745 110.200 182.800 110.200 H 188.800 C 188.855 110.200 188.900 110.155 188.900 110.100 V 107.200 C 188.900 107.100 188.800 107.200 188.900 107.200 H 194.700 C 194.800 107.200 194.700 107.100 194.700 107.200 V 110.100 C 194.700 110.155 194.745 110.200 194.800 110.200 H 200.800 C 200.855 110.200 200.900 110.155 200.900 110.100 V 107.200 C 200.900 107.100 200.800 107.200 200.900 107.200 H 208.800 C 208.855 107.200 208.900 107.155 208.900 107.100 V 99.200 C 208.900 99.100 208.800 99.200 208.900 99.200 H 211.800 C 211.855 99.200 211.900 99.155 211.900 99.100 V 93.100 C 211.900 93.045 211.855 93.000 211.800 93.000 H 208.900 C 208.800 93.000 208.900 93.100 208.900 93.000 V 87.200 C 208.900 87.100 208.800 87.200 208.900 87.200 H 211.800 C 211.855 87.200 211.900 87.155 211.900 87.100 V 81.100 C 211.900 81.045 211.855 81.000 211.800 81.000 H 208.900 C 208.800 81.000 208.900 81.100 208.900 81.000 V 75.200 C 208.900 75.100 208.800 75.200 208.900 75.200 H 211.800 C 211.855 75.200 211.900 75.155 211.900 75.100 V 69.100 C 211.900 69.045 211.855 69.000 211.800 69.000 H 208.900 C 208.800 69.000 208.900 69.100 208.900 69.000 V 63.200 C 208.900 63.100 208.800 63.200 208.900 63.200 H 211.800 C 211.855 63.200 211.900 63.155 211.900 63.100 V 57.100 C 211.900 57.045 211.855 57.000 211.800 57.000 H 208.900 C 208.800 57.000 208.900 57.100 208.900 57.000 V 51.200 C 208.900 51.100 208.800 51.200 208.900 51.200 H 211.800 C 211.855 51.200 211.900 51.155 211.900 51.100 V 45.100 C 211.900 45.045 211.855 45.000 211.800 45.000 H 208.900 C 208.800 45.000 208.900 45.100 208.900 45.000 V 39.200 C 208.900 39.100 208.800 39.200 208.900 39.200 H 211.800 C 211.855 39.200 211.900 39.155 211.900 39.100 V 33.100 C 211.900 33.045 211.855 33.000 211.800 33.000 H 208.900 C 208.800 33.000 208.900 33.100 208.900 33.000 V 27.200 C 208.900 27.100 208.800 27.200 208.900 27.200 H 211.800 C 211.855 27.200 211.900 27.155 211.900 27.100 V 21.100 C 211.900 21.045 211.855 21.000 211.800 21.000 H 208.900 C 208.800 21.000 208.900 21.100 208.900 21.000 V 13.100 C 208.900 13.045 208.855 13.000 208.800 13.000 H 200.900 C 200.800 13.000 200.900 13.100 200.900 13.000 V 10.100 C 200.900 10.045 200.855 10.000 200.800 10.000 H 194.800 C 194.745 10.000 194.700 10.045 194.700 10.100 V 13.000 C 194.700 13.100 194.800 13.000 194.700 13.000 H 188.900 C 188.800 13.000 188.900 13.100 188.900 13.000 V 10.100 C 188.900 10.045 188.855 10.000 188.800 10.000 H 182.800 C 182.745 10.000 182.700 10.045 182.700 10.100 V 13.000 C 182.700 13.100 182.800 13.000 182.700 13.000 H 176.900 C 176.800 13.000 176.900 13.100 176.900 13.000 V 10.100 C 176.900 10.045 176.855 10.000 176.800 10.000 H 170.800 C 170.745 10.000 170.700 10.045 170.700 10.100 V 13.000 C 170.700 13.100 170.800 13.000 170.700 13.000 H 164.900 C 164.800 13.000 164.900 13.100 164.900 13.000 V 10.100 C 164.900 10.045 164.855 10.000 164.800 10.000 H 158.800 C 158.745 10.000 158.700 10.045 158.700 10.100 V 13.000 C 158.700 13.100 158.800 13.000 158.700 13.000 H 152.900 C 152.800 13.000 152.900 13.100 152.900 13.000 V 10.100 C 152.900 10.045 152.855 10.000 152.800 10.000 H 146.800 C 146.745 10.000 146.700 10.045 146.700 10.100 V 13.000 C 146.700 13.100 146.800 13.000 146.700 13.000 H 140.900 C 140.800 13.000 140.900 13.100 140.900 13.000 V 10.100 C 140.900 10.045 140.855 10.000 140.800 10.000 H 134.800 C 134.745 10.000 134.700 10.045 134.700 10.100 V 13.000 C 134.700 13.100 134.800 13.000 134.700 13.000 H 128.900 C 128.800 13.000 128.900 13.100 128.900 13.000 V 10.100 C 128.900 10.045 128.855 10.000 128.800 10.000 H 122.800 C 122.745 10.000 122.700 10.045 122.700 10.100 V 13.000 C 122.700 13.100 122.800 13.000 122.700 13.000 H 114.800 C 114.745 13.000 114.700 13.045 114.700 13.100 V 21.000 C 114.700 21.100 114.800 21.000 114.700 21.000 H 111.800 C 111.745 21.000 111.700 21.045 111.700 21.100 V 27.100 C 111.700 27.155 111.745 27.200 111.800 27.200 H 114.700 C 114.800 27.200 114.700 27.100 114.700 27.200 V 33.000 C 114.700 33.100 114.800 33.000 114.700 33.000 H 111.800 C 111.745 33.000 111.700 33.045 111.700 33.100 V 39.100 C 111.700 39.155 111.745 39.200 111.800 39.200 H 114.700 C 114.800 39.200 114.700 39.100 114.700 39.200 V 45.000 C 114.700 45.100 114.800 45.000 114.700 45.000 H 111.800 C 111.745 45.000 111.700 45.045 111.700 45.100 V 51.100 C 111.700 51.155 111.745 51.200 111.800 51.200 H 114.700 C 114.800 51.200 114.700 51.100 114.700 51.200 V 57.000 C 114.700 57.100 114.800 57.000 114.700 57.000 H 111.800 C 111.745 57.000 111.700 57.045 111.700 57.100 V 63.100 C 111.700 63.155 111.745 63.200 111.800 63.200 H 114.700 C 114.800 63.200 114.700 63.100 114.700 63.200 V 69.000 C 114.700 69.100 114.800 69.000 114.700 69.000 H 111.800 C 111.745 69.000 111.700 69.045 111.700 69.100 V 75.100 C 111.700 75.155 111.745 75.200 111.800 75.200 H 114.700 C 114.800 75.200 114.700 75.100 114.700 75.200 V 81.000 C 114.700 81.100 114.800 81.000 114.700 81.000 H 111.800 C 111.745 81.000 111.700 81.045 111.700 81.100 V 87.100 C 111.700 87.155 111.745 87.200 111.800 87.200 H 114.700 C 114.800 87.200 114.700 87.100 114.700 87.200 V 93.000 C 114.700 93.100 114.800 93.000 114.700 93.000 H 111.800 C 111.745 93.000 111.700 93.045 111.700 93.100 V 99.100 C 111.700 99.155 111.745 99.200 111.800 99.200 H 114.700 C 114.800 99.200 114.700 99.100 114.700 99.200 V 107.100 C 114.700 107.155 114.745 107.200 114.800 107.200"
       stroke="rgb(0,0,0)"
       stroke-width="0.20"
       id="path38" />
  </g>
  <g
     id="Cut"
     transform="matrix(1,0,0,-1,59.881276,59.989079)">
    <path
       id="Cut_f0000"
       d="m -38.929897,-47.2701 h -7.9 v 0 z"
       stroke="#191919"
       stroke-width="0.35 px"
       style="fill:#cccccc;fill-opacity:1;fill-rule:evenodd;stroke-width:0.35;stroke-linecap:square;stroke-miterlimit:4;stroke-dasharray:none" />
    <path
       id="Cut_f0001"
       d="m -46.829897,-47.2701 c -0.055,0 -0.1,0.045 -0.1,0.1 v 0 c 0,-0.055 0.045,-0.1 0.1,-0.1 z"
       stroke="#191919"
       stroke-width="0.35 px"
       style="fill:#cccccc;fill-opacity:1;fill-rule:evenodd;stroke-width:0.35;stroke-linecap:square;stroke-miterlimit:4;stroke-dasharray:none" />
    <path
       id="Cut_f0002"
       d="m -38.929897,-50.1701 v 2.9 0 z"
       stroke="#191919"
       stroke-width="0.35 px"
       style="fill:#cccccc;fill-opacity:1;fill-rule:evenodd;stroke-width:0.35;stroke-linecap:square;stroke-miterlimit:4;stroke-dasharray:none" />
    <circle
       cx="-15"
       cy="0"
       r="7"
       stroke="#191919"
       stroke-width="0.35 px"
       style="fill:#cccccc;stroke-width:0.35;stroke-linecap:square;stroke-miterlimit:4;stroke-dasharray:none"
       id="circle5" />
    <circle
       cx="-15"
       cy="0"
       r="7"
       stroke="#191919"
       stroke-width="0.35 px"
       style="fill:#cccccc;stroke-width:0.35;stroke-linecap:square;stroke-miterlimit:4;stroke-dasharray:none"
       id="circle7" />
    <path
       id="Cut_f0005"
       d="m -46.929897,-47.1701 v 7.9 0 z"
       stroke="#191919"
       stroke-width="0.35 px"
       style="fill:#cccccc;fill-opacity:1;fill-rule:evenodd;stroke-width:0.35;stroke-linecap:square;stroke-miterlimit:4;stroke-dasharray:none" />
    <path
       id="Cut_f0006"
       d="m -38.829897,-50.2701 c -0.055,0 -0.1,0.045 -0.1,0.1 v 0 c 0,-0.055 0.045,-0.1 0.1,-0.1 z"
       stroke="#191919"
       stroke-width="0.35 px"
       style="fill:#cccccc;fill-opacity:1;fill-rule:evenodd;stroke-width:0.35;stroke-linecap:square;stroke-miterlimit:4;stroke-dasharray:none" />
    <path
       id="Cut_f0007"
       d="m -46.929897,-39.2701 h -2.9 v 0 z"
       stroke="#191919"
       stroke-width="0.35 px"
       style="fill:#cccccc;fill-opacity:1;fill-rule:evenodd;stroke-width:0.35;stroke-linecap:square;stroke-miterlimit:4;stroke-dasharray:none" />
    <path
       id="Cut_f0008"
       d="m -32.829897,-50.2701 h -6 v 0 z"
       stroke="#191919"
       stroke-width="0.35 px"
       style="fill:#cccccc;fill-opacity:1;fill-rule:evenodd;stroke-width:0.35;stroke-linecap:square;stroke-miterlimit:4;stroke-dasharray:none" />
    <path
       id="Cut_f0009"
       d="m -49.829897,-39.2701 c -0.055,0 -0.1,0.045 -0.1,0.1 v 0 c 0,-0.055 0.045,-0.1 0.1,-0.1 z"
       stroke="#191919"
       stroke-width="0.35 px"
       style="fill:#cccccc;fill-opacity:1;fill-rule:evenodd;stroke-width:0.35;stroke-linecap:square;stroke-miterlimit:4;stroke-dasharray:none" />
    <path
       id="Cut_f0010"
       d="m -32.729897,-50.1701 c 0,-0.055 -0.045,-0.1 -0.1,-0.1 v 0 c 0.055,0 0.1,0.045 0.1,0.1 z"
       stroke="#191919"
       stroke-width="0.35 px"
       style="fill:#cccccc;fill-opacity:1;fill-rule:evenodd;stroke-width:0.35;stroke-linecap:square;stroke-miterlimit:4;stroke-dasharray:none" />
    <path
       id="Cut_f0011"
       d="m -49.929897,-39.1701 v 6 0 z"
       stroke="#191919"
       stroke-width="0.35 px"
       style="fill:#cccccc;fill-opacity:1;fill-rule:evenodd;stroke-width:0.35;stroke-linecap:square;stroke-miterlimit:4;stroke-dasharray:none" />
    <path
       id="Cut_f0012"
       d="m -32.729897,-47.2701 v -2.9 0 z"
       stroke="#191919"
       stroke-width="0.35 px"
       style="fill:#cccccc;fill-opacity:1;fill-rule:evenodd;stroke-width:0.35;stroke-linecap:square;stroke-miterlimit:4;stroke-dasharray:none" />
    <path
       id="Cut_f0013"
       d="m -49.929897,-33.1701 c 0,0.055 0.045,0.1 0.1,0.1 v 0 c -0.055,0 -0.1,-0.045 -0.1,-0.1 z"
       stroke="#191919"
       stroke-width="0.35 px"
       style="fill:#cccccc;fill-opacity:1;fill-rule:evenodd;stroke-width:0.35;stroke-linecap:square;stroke-miterlimit:4;stroke-dasharray:none" />
    <path
       id="Cut_f0014"
       d="m -26.929897,-47.2701 h -5.8 v 0 z"
       stroke="#191919"
       stroke-width="0.35 px"
       style="fill:#cccccc;fill-opacity:1;fill-rule:evenodd;stroke-width:0.35;stroke-linecap:square;stroke-miterlimit:4;stroke-dasharray:none" />
    <path
       id="Cut_f0015"
       d="m -49.829897,-33.0701 h 2.9 v 0 z"
       stroke="#191919"
       stroke-width="0.35 px"
       style="fill:#cccccc;fill-opacity:1;fill-rule:evenodd;stroke-width:0.35;stroke-linecap:square;stroke-miterlimit:4;stroke-dasharray:none" />
    <path
       id="Cut_f0016"
       d="m -26.929897,-50.1701 v 2.9 0 z"
       stroke="#191919"
       stroke-width="0.35 px"
       style="fill:#cccccc;fill-opacity:1;fill-rule:evenodd;stroke-width:0.35;stroke-linecap:square;stroke-miterlimit:4;stroke-dasharray:none" />
    <path
       id="Cut_f0017"
       d="m -46.929897,-33.0701 v 5.8 0 z"
       stroke="#191919"
       stroke-width="0.35 px"
       style="fill:#cccccc;fill-opacity:1;fill-rule:evenodd;stroke-width:0.35;stroke-linecap:square;stroke-miterlimit:4;stroke-dasharray:none" />
    <path
       id="Cut_f0018"
       d="m -26.829897,-50.2701 c -0.055,0 -0.1,0.045 -0.1,0.1 v 0 c 0,-0.055 0.045,-0.1 0.1,-0.1 z"
       stroke="#191919"
       stroke-width="0.35 px"
       style="fill:#cccccc;fill-opacity:1;fill-rule:evenodd;stroke-width:0.35;stroke-linecap:square;stroke-miterlimit:4;stroke-dasharray:none" />
    <path
       id="Cut_f0019"
       d="m -46.929897,-27.2701 h -2.9 v 0 z"
       stroke="#191919"
       stroke-width="0.35 px"
       style="fill:#cccccc;fill-opacity:1;fill-rule:evenodd;stroke-width:0.35;stroke-linecap:square;stroke-miterlimit:4;stroke-dasharray:none" />
    <path
       id="Cut_f0020"
       d="m -20.829897,-50.2701 h -6 v 0 z"
       stroke="#191919"
       stroke-width="0.35 px"
       style="fill:#cccccc;fill-opacity:1;fill-rule:evenodd;stroke-width:0.35;stroke-linecap:square;stroke-miterlimit:4;stroke-dasharray:none" />
    <path
       id="Cut_f0021"
       d="m -49.829897,-27.2701 c -0.055,0 -0.1,0.045 -0.1,0.1 v 0 c 0,-0.055 0.045,-0.1 0.1,-0.1 z"
       stroke="#191919"
       stroke-width="0.35 px"
       style="fill:#cccccc;fill-opacity:1;fill-rule:evenodd;stroke-width:0.35;stroke-linecap:square;stroke-miterlimit:4;stroke-dasharray:none" />
    <path
       id="Cut_f0022"
       d="m -20.729897,-50.1701 c 0,-0.055 -0.045,-0.1 -0.1,-0.1 v 0 c 0.055,0 0.1,0.045 0.1,0.1 z"
       stroke="#191919"
       stroke-width="0.35 px"
       style="fill:#cccccc;fill-opacity:1;fill-rule:evenodd;stroke-width:0.35;stroke-linecap:square;stroke-miterlimit:4;stroke-dasharray:none" />
    <path
       id="Cut_f0023"
       d="m -49.929897,-27.1701 v 6 0 z"
       stroke="#191919"
       stroke-width="0.35 px"
       style="fill:#cccccc;fill-opacity:1;fill-rule:evenodd;stroke-width:0.35;stroke-linecap:square;stroke-miterlimit:4;stroke-dasharray:none" />
    <path
       id="Cut_f0024"
       d="m -20.729897,-47.2701 v -2.9 0 z"
       stroke="#191919"
       stroke-width="0.35 px"
       style="fill:#cccccc;fill-opacity:1;fill-rule:evenodd;stroke-width:0.35;stroke-linecap:square;stroke-miterlimit:4;stroke-dasharray:none" />
    <path
       id="Cut_f0025"
       d="m -49.929897,-21.1701 c 0,0.055 0.045,0.1 0.1,0.1 v 0 c -0.055,0 -0.1,-0.045 -0.1,-0.1 z"
       stroke="#191919"
       stroke-width="0.35 px"
       style="fill:#cccccc;fill-opacity:1;fill-rule:evenodd;stroke-width:0.35;stroke-linecap:square;stroke-miterlimit:4;stroke-dasharray:none" />
    <path
       id="Cut_f0026"
       d="m -14.929897,-47.2701 h -5.8 v 0 z"
       stroke="#191919"
       stroke-width="0.35 px"
       style="fill:#cccccc;fill-opacity:1;fill-rule:evenodd;stroke-width:0.35;stroke-linecap:square;stroke-miterlimit:4;stroke-dasharray:none" />
    <path
       id="Cut_f0027"
       d="m -49.829897,-21.0701 h 2.9 v 0 z"
       stroke="#191919"
       stroke-width="0.35 px"
       style="fill:#cccccc;fill-opacity:1;fill-rule:evenodd;stroke-width:0.35;stroke-linecap:square;stroke-miterlimit:4;stroke-dasharray:none" />
    <path
       id="Cut_f0028"
       d="m -14.929897,-50.1701 v 2.9 0 z"
       stroke="#191919"
       stroke-width="0.35 px"
       style="fill:#cccccc;fill-opacity:1;fill-rule:evenodd;stroke-width:0.35;stroke-linecap:square;stroke-miterlimit:4;stroke-dasharray:none" />
    <path
       id="Cut_f0029"
       d="m -46.929897,-21.0701 v 5.8 0 z"
       stroke="#191919"
       stroke-width="0.35 px"
       style="fill:#cccccc;fill-opacity:1;fill-rule:evenodd;stroke-width:0.35;stroke-linecap:square;stroke-miterlimit:4;stroke-dasharray:none" />
    <path
       id="Cut_f0030"
       d="m -14.829897,-50.2701 c -0.055,0 -0.1,0.045 -0.1,0.1 v 0 c 0,-0.055 0.045,-0.1 0.1,-0.1 z"
       stroke="#191919"
       stroke-width="0.35 px"
       style="fill:#cccccc;fill-opacity:1;fill-rule:evenodd;stroke-width:0.35;stroke-linecap:square;stroke-miterlimit:4;stroke-dasharray:none" />
    <path
       id="Cut_f0031"
       d="m -46.929897,-15.2701 h -2.9 v 0 z"
       stroke="#191919"
       stroke-width="0.35 px"
       style="fill:#cccccc;fill-opacity:1;fill-rule:evenodd;stroke-width:0.35;stroke-linecap:square;stroke-miterlimit:4;stroke-dasharray:none" />
    <path
       id="Cut_f0032"
       d="m -8.829897,-50.2701 h -6 v 0 z"
       stroke="#191919"
       stroke-width="0.35 px"
       style="fill:#cccccc;fill-opacity:1;fill-rule:evenodd;stroke-width:0.35;stroke-linecap:square;stroke-miterlimit:4;stroke-dasharray:none" />
    <path
       id="Cut_f0033"
       d="m -49.829897,-15.2701 c -0.055,0 -0.1,0.045 -0.1,0.1 v 0 c 0,-0.055 0.045,-0.1 0.1,-0.1 z"
       stroke="#191919"
       stroke-width="0.35 px"
       style="fill:#cccccc;fill-opacity:1;fill-rule:evenodd;stroke-width:0.35;stroke-linecap:square;stroke-miterlimit:4;stroke-dasharray:none" />
    <path
       id="Cut_f0034"
       d="m -8.729897,-50.1701 c 0,-0.055 -0.045,-0.1 -0.1,-0.1 v 0 c 0.055,0 0.1,0.045 0.1,0.1 z"
       stroke="#191919"
       stroke-width="0.35 px"
       style="fill:#cccccc;fill-opacity:1;fill-rule:evenodd;stroke-width:0.35;stroke-linecap:square;stroke-miterlimit:4;stroke-dasharray:none" />
    <path
       id="Cut_f0035"
       d="m -49.929897,-15.1701 v 6 0 z"
       stroke="#191919"
       stroke-width="0.35 px"
       style="fill:#cccccc;fill-opacity:1;fill-rule:evenodd;stroke-width:0.35;stroke-linecap:square;stroke-miterlimit:4;stroke-dasharray:none" />
    <path
       id="Cut_f0036"
       d="m -8.729897,-47.2701 v -2.9 0 z"
       stroke="#191919"
       stroke-width="0.35 px"
       style="fill:#cccccc;fill-opacity:1;fill-rule:evenodd;stroke-width:0.35;stroke-linecap:square;stroke-miterlimit:4;stroke-dasharray:none" />
    <path
       id="Cut_f0037"
       d="m -49.929897,-9.1701 c 0,0.055 0.045,0.1 0.1,0.1 v 0 c -0.055,0 -0.1,-0.045 -0.1,-0.1 z"
       stroke="#191919"
       stroke-width="0.35 px"
       style="fill:#cccccc;fill-opacity:1;fill-rule:evenodd;stroke-width:0.35;stroke-linecap:square;stroke-miterlimit:4;stroke-dasharray:none" />
    <path
       id="Cut_f0038"
       d="m -2.929897,-47.2701 h -5.8 v 0 z"
       stroke="#191919"
       stroke-width="0.35 px"
       style="fill:#cccccc;fill-opacity:1;fill-rule:evenodd;stroke-width:0.35;stroke-linecap:square;stroke-miterlimit:4;stroke-dasharray:none" />
    <path
       id="Cut_f0039"
       d="m -49.829897,-9.0701 h 2.9 v 0 z"
       stroke="#191919"
       stroke-width="0.35 px"
       style="fill:#cccccc;fill-opacity:1;fill-rule:evenodd;stroke-width:0.35;stroke-linecap:square;stroke-miterlimit:4;stroke-dasharray:none" />
    <path
       id="Cut_f0040"
       d="m -2.929897,-50.1701 v 2.9 0 z"
       stroke="#191919"
       stroke-width="0.35 px"
       style="fill:#cccccc;fill-opacity:1;fill-rule:evenodd;stroke-width:0.35;stroke-linecap:square;stroke-miterlimit:4;stroke-dasharray:none" />
    <path
       id="Cut_f0041"
       d="m -46.929897,-9.0701 v 5.8 0 z"
       stroke="#191919"
       stroke-width="0.35 px"
       style="fill:#cccccc;fill-opacity:1;fill-rule:evenodd;stroke-width:0.35;stroke-linecap:square;stroke-miterlimit:4;stroke-dasharray:none" />
    <path
       id="Cut_f0042"
       d="m -2.829897,-50.2701 c -0.055,0 -0.1,0.045 -0.1,0.1 v 0 c 0,-0.055 0.045,-0.1 0.1,-0.1 z"
       stroke="#191919"
       stroke-width="0.35 px"
       style="fill:#cccccc;fill-opacity:1;fill-rule:evenodd;stroke-width:0.35;stroke-linecap:square;stroke-miterlimit:4;stroke-dasharray:none" />
    <path
       id="Cut_f0043"
       d="m -46.929897,-3.2701 h -2.9 v 0 z"
       stroke="#191919"
       stroke-width="0.35 px"
       style="fill:#cccccc;fill-opacity:1;fill-rule:evenodd;stroke-width:0.35;stroke-linecap:square;stroke-miterlimit:4;stroke-dasharray:none" />
    <path
       id="Cut_f0044"
       d="m 3.170103,-50.2701 h -6 v 0 z"
       stroke="#191919"
       stroke-width="0.35 px"
       style="fill:#cccccc;fill-opacity:1;fill-rule:evenodd;stroke-width:0.35;stroke-linecap:square;stroke-miterlimit:4;stroke-dasharray:none" />
    <path
       id="Cut_f0045"
       d="m -49.829897,-3.2701 c -0.055,0 -0.1,0.045 -0.1,0.1 v 0 c 0,-0.055 0.045,-0.1 0.1,-0.1 z"
       stroke="#191919"
       stroke-width="0.35 px"
       style="fill:#cccccc;fill-opacity:1;fill-rule:evenodd;stroke-width:0.35;stroke-linecap:square;stroke-miterlimit:4;stroke-dasharray:none" />
    <path
       id="Cut_f0046"
       d="m 3.270103,-50.1701 c 0,-0.055 -0.045,-0.1 -0.1,-0.1 v 0 c 0.055,0 0.1,0.045 0.1,0.1 z"
       stroke="#191919"
       stroke-width="0.35 px"
       style="fill:#cccccc;fill-opacity:1;fill-rule:evenodd;stroke-width:0.35;stroke-linecap:square;stroke-miterlimit:4;stroke-dasharray:none" />
    <path
       id="Cut_f0047"
       d="m -49.929897,-3.1701 v 6 0 z"
       stroke="#191919"
       stroke-width="0.35 px"
       style="fill:#cccccc;fill-opacity:1;fill-rule:evenodd;stroke-width:0.35;stroke-linecap:square;stroke-miterlimit:4;stroke-dasharray:none" />
    <path
       id="Cut_f0048"
       d="m 3.270103,-47.2701 v -2.9 0 z"
       stroke="#191919"
       stroke-width="0.35 px"
       style="fill:#cccccc;fill-opacity:1;fill-rule:evenodd;stroke-width:0.35;stroke-linecap:square;stroke-miterlimit:4;stroke-dasharray:none" />
    <path
       id="Cut_f0049"
       d="m -49.929897,2.8299 c 0,0.055 0.045,0.1 0.1,0.1 v 0 c -0.055,0 -0.1,-0.045 -0.1,-0.1 z"
       stroke="#191919"
       stroke-width="0.35 px"
       style="fill:#cccccc;fill-opacity:1;fill-rule:evenodd;stroke-width:0.35;stroke-linecap:square;stroke-miterlimit:4;stroke-dasharray:none" />
    <path
       id="Cut_f0050"
       d="m 9.070103,-47.2701 h -5.8 v 0 z"
       stroke="#191919"
       stroke-width="0.35 px"
       style="fill:#cccccc;fill-opacity:1;fill-rule:evenodd;stroke-width:0.35;stroke-linecap:square;stroke-miterlimit:4;stroke-dasharray:none" />
    <path
       id="Cut_f0051"
       d="m -49.829897,2.9299 h 2.9 v 0 z"
       stroke="#191919"
       stroke-width="0.35 px"
       style="fill:#cccccc;fill-opacity:1;fill-rule:evenodd;stroke-width:0.35;stroke-linecap:square;stroke-miterlimit:4;stroke-dasharray:none" />
    <path
       id="Cut_f0052"
       d="m 9.070103,-50.1701 v 2.9 0 z"
       stroke="#191919"
       stroke-width="0.35 px"
       style="fill:#cccccc;fill-opacity:1;fill-rule:evenodd;stroke-width:0.35;stroke-linecap:square;stroke-miterlimit:4;stroke-dasharray:none" />
    <path
       id="Cut_f0053"
       d="m -46.929897,2.9299 v 5.8 0 z"
       stroke="#191919"
       stroke-width="0.35 px"
       style="fill:#cccccc;fill-opacity:1;fill-rule:evenodd;stroke-width:0.35;stroke-linecap:square;stroke-miterlimit:4;stroke-dasharray:none" />
    <path
       id="Cut_f0054"
       d="m 9.170103,-50.2701 c -0.055,0 -0.1,0.045 -0.1,0.1 v 0 c 0,-0.055 0.045,-0.1 0.1,-0.1 z"
       stroke="#191919"
       stroke-width="0.35 px"
       style="fill:#cccccc;fill-opacity:1;fill-rule:evenodd;stroke-width:0.35;stroke-linecap:square;stroke-miterlimit:4;stroke-dasharray:none" />
    <path
       id="Cut_f0055"
       d="m -46.929897,8.7299 h -2.9 v 0 z"
       stroke="#191919"
       stroke-width="0.35 px"
       style="fill:#cccccc;fill-opacity:1;fill-rule:evenodd;stroke-width:0.35;stroke-linecap:square;stroke-miterlimit:4;stroke-dasharray:none" />
    <path
       id="Cut_f0056"
       d="m 15.170103,-50.2701 h -6 v 0 z"
       stroke="#191919"
       stroke-width="0.35 px"
       style="fill:#cccccc;fill-opacity:1;fill-rule:evenodd;stroke-width:0.35;stroke-linecap:square;stroke-miterlimit:4;stroke-dasharray:none" />
    <path
       id="Cut_f0057"
       d="m -49.829897,8.7299 c -0.055,0 -0.1,0.045 -0.1,0.1 v 0 c 0,-0.055 0.045,-0.1 0.1,-0.1 z"
       stroke="#191919"
       stroke-width="0.35 px"
       style="fill:#cccccc;fill-opacity:1;fill-rule:evenodd;stroke-width:0.35;stroke-linecap:square;stroke-miterlimit:4;stroke-dasharray:none" />
    <path
       id="Cut_f0058"
       d="m 15.270103,-50.1701 c 0,-0.055 -0.045,-0.1 -0.1,-0.1 v 0 c 0.055,0 0.1,0.045 0.1,0.1 z"
       stroke="#191919"
       stroke-width="0.35 px"
       style="fill:#cccccc;fill-opacity:1;fill-rule:evenodd;stroke-width:0.35;stroke-linecap:square;stroke-miterlimit:4;stroke-dasharray:none" />
    <path
       id="Cut_f0059"
       d="m -49.929897,8.8299 v 6 0 z"
       stroke="#191919"
       stroke-width="0.35 px"
       style="fill:#cccccc;fill-opacity:1;fill-rule:evenodd;stroke-width:0.35;stroke-linecap:square;stroke-miterlimit:4;stroke-dasharray:none" />
    <path
       id="Cut_f0060"
       d="m 15.270103,-47.2701 v -2.9 0 z"
       stroke="#191919"
       stroke-width="0.35 px"
       style="fill:#cccccc;fill-opacity:1;fill-rule:evenodd;stroke-width:0.35;stroke-linecap:square;stroke-miterlimit:4;stroke-dasharray:none" />
    <path
       id="Cut_f0061"
       d="m -49.929897,14.8299 c 0,0.055 0.045,0.1 0.1,0.1 v 0 c -0.055,0 -0.1,-0.045 -0.1,-0.1 z"
       stroke="#191919"
       stroke-width="0.35 px"
       style="fill:#cccccc;fill-opacity:1;fill-rule:evenodd;stroke-width:0.35;stroke-linecap:square;stroke-miterlimit:4;stroke-dasharray:none" />
    <path
       id="Cut_f0062"
       d="m 21.0701,-47.2701 h -5.799997 v 0 z"
       stroke="#191919"
       stroke-width="0.35 px"
       style="fill:#cccccc;fill-opacity:1;fill-rule:evenodd;stroke-width:0.35;stroke-linecap:square;stroke-miterlimit:4;stroke-dasharray:none" />
    <path
       id="Cut_f0063"
       d="m -49.829897,14.9299 h 2.9 v 0 z"
       stroke="#191919"
       stroke-width="0.35 px"
       style="fill:#cccccc;fill-opacity:1;fill-rule:evenodd;stroke-width:0.35;stroke-linecap:square;stroke-miterlimit:4;stroke-dasharray:none" />
    <path
       id="Cut_f0064"
       d="m 21.0701,-50.1701 v 2.9 0 z"
       stroke="#191919"
       stroke-width="0.35 px"
       style="fill:#cccccc;fill-opacity:1;fill-rule:evenodd;stroke-width:0.35;stroke-linecap:square;stroke-miterlimit:4;stroke-dasharray:none" />
    <path
       id="Cut_f0065"
       d="m -46.929897,14.9299 v 5.8 0 z"
       stroke="#191919"
       stroke-width="0.35 px"
       style="fill:#cccccc;fill-opacity:1;fill-rule:evenodd;stroke-width:0.35;stroke-linecap:square;stroke-miterlimit:4;stroke-dasharray:none" />
    <path
       id="Cut_f0066"
       d="m 21.1701,-50.2701 c -0.055,0 -0.1,0.045 -0.1,0.1 v 0 c 0,-0.055 0.045,-0.1 0.1,-0.1 z"
       stroke="#191919"
       stroke-width="0.35 px"
       style="fill:#cccccc;fill-opacity:1;fill-rule:evenodd;stroke-width:0.35;stroke-linecap:square;stroke-miterlimit:4;stroke-dasharray:none" />
    <path
       id="Cut_f0067"
       d="m -46.929897,20.7299 h -2.9 v 0 z"
       stroke="#191919"
       stroke-width="0.35 px"
       style="fill:#cccccc;fill-opacity:1;fill-rule:evenodd;stroke-width:0.35;stroke-linecap:square;stroke-miterlimit:4;stroke-dasharray:none" />
    <path
       id="Cut_f0068"
       d="m 27.1701,-50.2701 h -6 v 0 z"
       stroke="#191919"
       stroke-width="0.35 px"
       style="fill:#cccccc;fill-opacity:1;fill-rule:evenodd;stroke-width:0.35;stroke-linecap:square;stroke-miterlimit:4;stroke-dasharray:none" />
    <path
       id="Cut_f0069"
       d="m -49.829897,20.7299 c -0.055,0 -0.1,0.045 -0.1,0.1 v 0 c 0,-0.055 0.045,-0.1 0.1,-0.1 z"
       stroke="#191919"
       stroke-width="0.35 px"
       style="fill:#cccccc;fill-opacity:1;fill-rule:evenodd;stroke-width:0.35;stroke-linecap:square;stroke-miterlimit:4;stroke-dasharray:none" />
    <path
       id="Cut_f0070"
       d="m 27.2701,-50.1701 c 0,-0.055 -0.045,-0.1 -0.1,-0.1 v 0 c 0.055,0 0.1,0.045 0.1,0.1 z"
       stroke="#191919"
       stroke-width="0.35 px"
       style="fill:#cccccc;fill-opacity:1;fill-rule:evenodd;stroke-width:0.35;stroke-linecap:square;stroke-miterlimit:4;stroke-dasharray:none" />
    <path
       id="Cut_f0071"
       d="m -49.929897,20.8299 v 6 0 z"
       stroke="#191919"
       stroke-width="0.35 px"
       style="fill:#cccccc;fill-opacity:1;fill-rule:evenodd;stroke-width:0.35;stroke-linecap:square;stroke-miterlimit:4;stroke-dasharray:none" />
    <path
       id="Cut_f0072"
       d="m 27.2701,-47.2701 v -2.9 0 z"
       stroke="#191919"
       stroke-width="0.35 px"
       style="fill:#cccccc;fill-opacity:1;fill-rule:evenodd;stroke-width:0.35;stroke-linecap:square;stroke-miterlimit:4;stroke-dasharray:none" />
    <path
       id="Cut_f0073"
       d="m -49.929897,26.8299 c 0,0.055 0.045,0.1 0.1,0.1 v 0 c -0.055,0 -0.1,-0.045 -0.1,-0.1 z"
       stroke="#191919"
       stroke-width="0.35 px"
       style="fill:#cccccc;fill-opacity:1;fill-rule:evenodd;stroke-width:0.35;stroke-linecap:square;stroke-miterlimit:4;stroke-dasharray:none" />
    <path
       id="Cut_f0074"
       d="m 33.0701,-47.2701 h -5.8 v 0 z"
       stroke="#191919"
       stroke-width="0.35 px"
       style="fill:#cccccc;fill-opacity:1;fill-rule:evenodd;stroke-width:0.35;stroke-linecap:square;stroke-miterlimit:4;stroke-dasharray:none" />
    <path
       id="Cut_f0075"
       d="m -49.829897,26.9299 h 2.9 v 0 z"
       stroke="#191919"
       stroke-width="0.35 px"
       style="fill:#cccccc;fill-opacity:1;fill-rule:evenodd;stroke-width:0.35;stroke-linecap:square;stroke-miterlimit:4;stroke-dasharray:none" />
    <path
       id="Cut_f0076"
       d="m 33.0701,-50.1701 v 2.9 0 z"
       stroke="#191919"
       stroke-width="0.35 px"
       style="fill:#cccccc;fill-opacity:1;fill-rule:evenodd;stroke-width:0.35;stroke-linecap:square;stroke-miterlimit:4;stroke-dasharray:none" />
    <path
       id="Cut_f0077"
       d="m -46.929897,26.9299 v 5.8 0 z"
       stroke="#191919"
       stroke-width="0.35 px"
       style="fill:#cccccc;fill-opacity:1;fill-rule:evenodd;stroke-width:0.35;stroke-linecap:square;stroke-miterlimit:4;stroke-dasharray:none" />
    <path
       id="Cut_f0078"
       d="m 33.1701,-50.2701 c -0.055,0 -0.1,0.045 -0.1,0.1 v 0 c 0,-0.055 0.045,-0.1 0.1,-0.1 z"
       stroke="#191919"
       stroke-width="0.35 px"
       style="fill:#cccccc;fill-opacity:1;fill-rule:evenodd;stroke-width:0.35;stroke-linecap:square;stroke-miterlimit:4;stroke-dasharray:none" />
    <path
       id="Cut_f0079"
       d="m -46.929897,32.7299 h -2.9 v 0 z"
       stroke="#191919"
       stroke-width="0.35 px"
       style="fill:#cccccc;fill-opacity:1;fill-rule:evenodd;stroke-width:0.35;stroke-linecap:square;stroke-miterlimit:4;stroke-dasharray:none" />
    <path
       id="Cut_f0080"
       d="m 39.1701,-50.2701 h -6 v 0 z"
       stroke="#191919"
       stroke-width="0.35 px"
       style="fill:#cccccc;fill-opacity:1;fill-rule:evenodd;stroke-width:0.35;stroke-linecap:square;stroke-miterlimit:4;stroke-dasharray:none" />
    <path
       id="Cut_f0081"
       d="m -49.829897,32.7299 c -0.055,0 -0.1,0.045 -0.1,0.1 v 0 c 0,-0.055 0.045,-0.1 0.1,-0.1 z"
       stroke="#191919"
       stroke-width="0.35 px"
       style="fill:#cccccc;fill-opacity:1;fill-rule:evenodd;stroke-width:0.35;stroke-linecap:square;stroke-miterlimit:4;stroke-dasharray:none" />
    <path
       id="Cut_f0082"
       d="m 39.2701,-50.1701 c 0,-0.055 -0.045,-0.1 -0.1,-0.1 v 0 c 0.055,0 0.1,0.045 0.1,0.1 z"
       stroke="#191919"
       stroke-width="0.35 px"
       style="fill:#cccccc;fill-opacity:1;fill-rule:evenodd;stroke-width:0.35;stroke-linecap:square;stroke-miterlimit:4;stroke-dasharray:none" />
    <path
       id="Cut_f0083"
       d="m -49.929897,32.8299 v 6 0 z"
       stroke="#191919"
       stroke-width="0.35 px"
       style="fill:#cccccc;fill-opacity:1;fill-rule:evenodd;stroke-width:0.35;stroke-linecap:square;stroke-miterlimit:4;stroke-dasharray:none" />
    <path
       id="Cut_f0084"
       d="m 39.2701,-47.2701 v -2.9 0 z"
       stroke="#191919"
       stroke-width="0.35 px"
       style="fill:#cccccc;fill-opacity:1;fill-rule:evenodd;stroke-width:0.35;stroke-linecap:square;stroke-miterlimit:4;stroke-dasharray:none" />
    <path
       id="Cut_f0085"
       d="m -49.929897,38.8299 c 0,0.055 0.045,0.1 0.1,0.1 v 0 c -0.055,0 -0.1,-0.045 -0.1,-0.1 z"
       stroke="#191919"
       stroke-width="0.35 px"
       style="fill:#cccccc;fill-opacity:1;fill-rule:evenodd;stroke-width:0.35;stroke-linecap:square;stroke-miterlimit:4;stroke-dasharray:none" />
    <path
       id="Cut_f0086"
       d="m 47.1701,-47.2701 h -7.9 v 0 z"
       stroke="#191919"
       stroke-width="0.35 px"
       style="fill:#cccccc;fill-opacity:1;fill-rule:evenodd;stroke-width:0.35;stroke-linecap:square;stroke-miterlimit:4;stroke-dasharray:none" />
    <path
       id="Cut_f0087"
       d="m -49.829897,38.9299 h 2.9 v 0 z"
       stroke="#191919"
       stroke-width="0.35 px"
       style="fill:#cccccc;fill-opacity:1;fill-rule:evenodd;stroke-width:0.35;stroke-linecap:square;stroke-miterlimit:4;stroke-dasharray:none" />
    <path
       id="Cut_f0088"
       d="m 47.2701,-47.1701 c 0,-0.055 -0.045,-0.1 -0.1,-0.1 v 0 c 0.055,0 0.1,0.045 0.1,0.1 z"
       stroke="#191919"
       stroke-width="0.35 px"
       style="fill:#cccccc;fill-opacity:1;fill-rule:evenodd;stroke-width:0.35;stroke-linecap:square;stroke-miterlimit:4;stroke-dasharray:none" />
    <path
       id="Cut_f0089"
       d="m -46.929897,38.9299 v 7.9 0 z"
       stroke="#191919"
       stroke-width="0.35 px"
       style="fill:#cccccc;fill-opacity:1;fill-rule:evenodd;stroke-width:0.35;stroke-linecap:square;stroke-miterlimit:4;stroke-dasharray:none" />
    <path
       id="Cut_f0090"
       d="m 47.2701,-39.2701 v -7.9 0 z"
       stroke="#191919"
       stroke-width="0.35 px"
       style="fill:#cccccc;fill-opacity:1;fill-rule:evenodd;stroke-width:0.35;stroke-linecap:square;stroke-miterlimit:4;stroke-dasharray:none" />
    <path
       id="Cut_f0091"
       d="m -46.929897,46.8299 c 0,0.055 0.045,0.1 0.1,0.1 v 0 c -0.055,0 -0.1,-0.045 -0.1,-0.1 z"
       stroke="#191919"
       stroke-width="0.35 px"
       style="fill:#cccccc;fill-opacity:1;fill-rule:evenodd;stroke-width:0.35;stroke-linecap:square;stroke-miterlimit:4;stroke-dasharray:none" />
    <path
       id="Cut_f0092"
       d="m 50.1701,-39.2701 h -2.9 v 0 z"
       stroke="#191919"
       stroke-width="0.35 px"
       style="fill:#cccccc;fill-opacity:1;fill-rule:evenodd;stroke-width:0.35;stroke-linecap:square;stroke-miterlimit:4;stroke-dasharray:none" />
    <path
       id="Cut_f0093"
       d="m -46.829897,46.9299 h 7.9 v 0 z"
       stroke="#191919"
       stroke-width="0.35 px"
       style="fill:#cccccc;fill-opacity:1;fill-rule:evenodd;stroke-width:0.35;stroke-linecap:square;stroke-miterlimit:4;stroke-dasharray:none" />
    <path
       id="Cut_f0094"
       d="m 50.2701,-39.1701 c 0,-0.055 -0.045,-0.1 -0.1,-0.1 v 0 c 0.055,0 0.1,0.045 0.1,0.1 z"
       stroke="#191919"
       stroke-width="0.35 px"
       style="fill:#cccccc;fill-opacity:1;fill-rule:evenodd;stroke-width:0.35;stroke-linecap:square;stroke-miterlimit:4;stroke-dasharray:none" />
    <path
       id="Cut_f0095"
       d="m -38.929897,46.9299 v 2.9 0 z"
       stroke="#191919"
       stroke-width="0.35 px"
       style="fill:#cccccc;fill-opacity:1;fill-rule:evenodd;stroke-width:0.35;stroke-linecap:square;stroke-miterlimit:4;stroke-dasharray:none" />
    <path
       id="Cut_f0096"
       d="m 50.2701,-33.1701 v -6 0 z"
       stroke="#191919"
       stroke-width="0.35 px"
       style="fill:#cccccc;fill-opacity:1;fill-rule:evenodd;stroke-width:0.35;stroke-linecap:square;stroke-miterlimit:4;stroke-dasharray:none" />
    <path
       id="Cut_f0097"
       d="m -38.929897,49.8299 c 0,0.055 0.045,0.1 0.1,0.1 v 0 c -0.055,0 -0.1,-0.045 -0.1,-0.1 z"
       stroke="#191919"
       stroke-width="0.35 px"
       style="fill:#cccccc;fill-opacity:1;fill-rule:evenodd;stroke-width:0.35;stroke-linecap:square;stroke-miterlimit:4;stroke-dasharray:none" />
    <path
       id="Cut_f0098"
       d="m 50.1701,-33.0701 c 0.055,0 0.1,-0.045 0.1,-0.1 v 0 c 0,0.055 -0.045,0.1 -0.1,0.1 z"
       stroke="#191919"
       stroke-width="0.35 px"
       style="fill:#cccccc;fill-opacity:1;fill-rule:evenodd;stroke-width:0.35;stroke-linecap:square;stroke-miterlimit:4;stroke-dasharray:none" />
    <path
       id="Cut_f0099"
       d="m -38.829897,49.9299 h 6 v 0 z"
       stroke="#191919"
       stroke-width="0.35 px"
       style="fill:#cccccc;fill-opacity:1;fill-rule:evenodd;stroke-width:0.35;stroke-linecap:square;stroke-miterlimit:4;stroke-dasharray:none" />
    <path
       id="Cut_f0100"
       d="m 47.2701,-33.0701 h 2.9 v 0 z"
       stroke="#191919"
       stroke-width="0.35 px"
       style="fill:#cccccc;fill-opacity:1;fill-rule:evenodd;stroke-width:0.35;stroke-linecap:square;stroke-miterlimit:4;stroke-dasharray:none" />
    <path
       id="Cut_f0101"
       d="m -32.829897,49.9299 c 0.055,0 0.1,-0.045 0.1,-0.1 v 0 c 0,0.055 -0.045,0.1 -0.1,0.1 z"
       stroke="#191919"
       stroke-width="0.35 px"
       style="fill:#cccccc;fill-opacity:1;fill-rule:evenodd;stroke-width:0.35;stroke-linecap:square;stroke-miterlimit:4;stroke-dasharray:none" />
    <path
       id="Cut_f0102"
       d="m 47.2701,-27.2701 v -5.8 0 z"
       stroke="#191919"
       stroke-width="0.35 px"
       style="fill:#cccccc;fill-opacity:1;fill-rule:evenodd;stroke-width:0.35;stroke-linecap:square;stroke-miterlimit:4;stroke-dasharray:none" />
    <path
       id="Cut_f0103"
       d="m -32.729897,49.8299 v -2.9 0 z"
       stroke="#191919"
       stroke-width="0.35 px"
       style="fill:#cccccc;fill-opacity:1;fill-rule:evenodd;stroke-width:0.35;stroke-linecap:square;stroke-miterlimit:4;stroke-dasharray:none" />
    <path
       id="Cut_f0104"
       d="m 50.1701,-27.2701 h -2.9 v 0 z"
       stroke="#191919"
       stroke-width="0.35 px"
       style="fill:#cccccc;fill-opacity:1;fill-rule:evenodd;stroke-width:0.35;stroke-linecap:square;stroke-miterlimit:4;stroke-dasharray:none" />
    <path
       id="Cut_f0105"
       d="m -32.729897,46.9299 h 5.8 v 0 z"
       stroke="#191919"
       stroke-width="0.35 px"
       style="fill:#cccccc;fill-opacity:1;fill-rule:evenodd;stroke-width:0.35;stroke-linecap:square;stroke-miterlimit:4;stroke-dasharray:none" />
    <path
       id="Cut_f0106"
       d="m 50.2701,-27.1701 c 0,-0.055 -0.045,-0.1 -0.1,-0.1 v 0 c 0.055,0 0.1,0.045 0.1,0.1 z"
       stroke="#191919"
       stroke-width="0.35 px"
       style="fill:#cccccc;fill-opacity:1;fill-rule:evenodd;stroke-width:0.35;stroke-linecap:square;stroke-miterlimit:4;stroke-dasharray:none" />
    <path
       id="Cut_f0107"
       d="m -26.929897,46.9299 v 2.9 0 z"
       stroke="#191919"
       stroke-width="0.35 px"
       style="fill:#cccccc;fill-opacity:1;fill-rule:evenodd;stroke-width:0.35;stroke-linecap:square;stroke-miterlimit:4;stroke-dasharray:none" />
    <path
       id="Cut_f0108"
       d="m 50.2701,-21.1701 v -6 0 z"
       stroke="#191919"
       stroke-width="0.35 px"
       style="fill:#cccccc;fill-opacity:1;fill-rule:evenodd;stroke-width:0.35;stroke-linecap:square;stroke-miterlimit:4;stroke-dasharray:none" />
    <path
       id="Cut_f0109"
       d="m -26.929897,49.8299 c 0,0.055 0.045,0.1 0.1,0.1 v 0 c -0.055,0 -0.1,-0.045 -0.1,-0.1 z"
       stroke="#191919"
       stroke-width="0.35 px"
       style="fill:#cccccc;fill-opacity:1;fill-rule:evenodd;stroke-width:0.35;stroke-linecap:square;stroke-miterlimit:4;stroke-dasharray:none" />
    <path
       id="Cut_f0110"
       d="m 50.1701,-21.0701 c 0.055,0 0.1,-0.045 0.1,-0.1 v 0 c 0,0.055 -0.045,0.1 -0.1,0.1 z"
       stroke="#191919"
       stroke-width="0.35 px"
       style="fill:#cccccc;fill-opacity:1;fill-rule:evenodd;stroke-width:0.35;stroke-linecap:square;stroke-miterlimit:4;stroke-dasharray:none" />
    <path
       id="Cut_f0111"
       d="m -26.829897,49.9299 h 6 v 0 z"
       stroke="#191919"
       stroke-width="0.35 px"
       style="fill:#cccccc;fill-opacity:1;fill-rule:evenodd;stroke-width:0.35;stroke-linecap:square;stroke-miterlimit:4;stroke-dasharray:none" />
    <path
       id="Cut_f0112"
       d="m 47.2701,-21.0701 h 2.9 v 0 z"
       stroke="#191919"
       stroke-width="0.35 px"
       style="fill:#cccccc;fill-opacity:1;fill-rule:evenodd;stroke-width:0.35;stroke-linecap:square;stroke-miterlimit:4;stroke-dasharray:none" />
    <path
       id="Cut_f0113"
       d="m -20.829897,49.9299 c 0.055,0 0.1,-0.045 0.1,-0.1 v 0 c 0,0.055 -0.045,0.1 -0.1,0.1 z"
       stroke="#191919"
       stroke-width="0.35 px"
       style="fill:#cccccc;fill-opacity:1;fill-rule:evenodd;stroke-width:0.35;stroke-linecap:square;stroke-miterlimit:4;stroke-dasharray:none" />
    <path
       id="Cut_f0114"
       d="m 47.2701,-15.2701 v -5.8 0 z"
       stroke="#191919"
       stroke-width="0.35 px"
       style="fill:#cccccc;fill-opacity:1;fill-rule:evenodd;stroke-width:0.35;stroke-linecap:square;stroke-miterlimit:4;stroke-dasharray:none" />
    <path
       id="Cut_f0115"
       d="m -20.729897,49.8299 v -2.9 0 z"
       stroke="#191919"
       stroke-width="0.35 px"
       style="fill:#cccccc;fill-opacity:1;fill-rule:evenodd;stroke-width:0.35;stroke-linecap:square;stroke-miterlimit:4;stroke-dasharray:none" />
    <path
       id="Cut_f0116"
       d="m 50.1701,-15.2701 h -2.9 v 0 z"
       stroke="#191919"
       stroke-width="0.35 px"
       style="fill:#cccccc;fill-opacity:1;fill-rule:evenodd;stroke-width:0.35;stroke-linecap:square;stroke-miterlimit:4;stroke-dasharray:none" />
    <path
       id="Cut_f0117"
       d="m -20.729897,46.9299 h 5.8 v 0 z"
       stroke="#191919"
       stroke-width="0.35 px"
       style="fill:#cccccc;fill-opacity:1;fill-rule:evenodd;stroke-width:0.35;stroke-linecap:square;stroke-miterlimit:4;stroke-dasharray:none" />
    <path
       id="Cut_f0118"
       d="m 50.2701,-15.1701 c 0,-0.055 -0.045,-0.1 -0.1,-0.1 v 0 c 0.055,0 0.1,0.045 0.1,0.1 z"
       stroke="#191919"
       stroke-width="0.35 px"
       style="fill:#cccccc;fill-opacity:1;fill-rule:evenodd;stroke-width:0.35;stroke-linecap:square;stroke-miterlimit:4;stroke-dasharray:none" />
    <path
       id="Cut_f0119"
       d="m -14.929897,46.9299 v 2.9 0 z"
       stroke="#191919"
       stroke-width="0.35 px"
       style="fill:#cccccc;fill-opacity:1;fill-rule:evenodd;stroke-width:0.35;stroke-linecap:square;stroke-miterlimit:4;stroke-dasharray:none" />
    <path
       id="Cut_f0120"
       d="m 50.2701,-9.1701 v -6 0 z"
       stroke="#191919"
       stroke-width="0.35 px"
       style="fill:#cccccc;fill-opacity:1;fill-rule:evenodd;stroke-width:0.35;stroke-linecap:square;stroke-miterlimit:4;stroke-dasharray:none" />
    <path
       id="Cut_f0121"
       d="m -14.929897,49.8299 c 0,0.055 0.045,0.1 0.1,0.1 v 0 c -0.055,0 -0.1,-0.045 -0.1,-0.1 z"
       stroke="#191919"
       stroke-width="0.35 px"
       style="fill:#cccccc;fill-opacity:1;fill-rule:evenodd;stroke-width:0.35;stroke-linecap:square;stroke-miterlimit:4;stroke-dasharray:none" />
    <path
       id="Cut_f0122"
       d="m 50.1701,-9.0701 c 0.055,0 0.1,-0.045 0.1,-0.1 v 0 c 0,0.055 -0.045,0.1 -0.1,0.1 z"
       stroke="#191919"
       stroke-width="0.35 px"
       style="fill:#cccccc;fill-opacity:1;fill-rule:evenodd;stroke-width:0.35;stroke-linecap:square;stroke-miterlimit:4;stroke-dasharray:none" />
    <path
       id="Cut_f0123"
       d="m -14.829897,49.9299 h 6 v 0 z"
       stroke="#191919"
       stroke-width="0.35 px"
       style="fill:#cccccc;fill-opacity:1;fill-rule:evenodd;stroke-width:0.35;stroke-linecap:square;stroke-miterlimit:4;stroke-dasharray:none" />
    <path
       id="Cut_f0124"
       d="m 47.2701,-9.0701 h 2.9 v 0 z"
       stroke="#191919"
       stroke-width="0.35 px"
       style="fill:#cccccc;fill-opacity:1;fill-rule:evenodd;stroke-width:0.35;stroke-linecap:square;stroke-miterlimit:4;stroke-dasharray:none" />
    <path
       id="Cut_f0125"
       d="m -8.829897,49.9299 c 0.055,0 0.1,-0.045 0.1,-0.1 v 0 c 0,0.055 -0.045,0.1 -0.1,0.1 z"
       stroke="#191919"
       stroke-width="0.35 px"
       style="fill:#cccccc;fill-opacity:1;fill-rule:evenodd;stroke-width:0.35;stroke-linecap:square;stroke-miterlimit:4;stroke-dasharray:none" />
    <path
       id="Cut_f0126"
       d="m 47.2701,-3.2701 v -5.8 0 z"
       stroke="#191919"
       stroke-width="0.35 px"
       style="fill:#cccccc;fill-opacity:1;fill-rule:evenodd;stroke-width:0.35;stroke-linecap:square;stroke-miterlimit:4;stroke-dasharray:none" />
    <path
       id="Cut_f0127"
       d="m -8.729897,49.8299 v -2.9 0 z"
       stroke="#191919"
       stroke-width="0.35 px"
       style="fill:#cccccc;fill-opacity:1;fill-rule:evenodd;stroke-width:0.35;stroke-linecap:square;stroke-miterlimit:4;stroke-dasharray:none" />
    <path
       id="Cut_f0128"
       d="m 50.1701,-3.2701 h -2.9 v 0 z"
       stroke="#191919"
       stroke-width="0.35 px"
       style="fill:#cccccc;fill-opacity:1;fill-rule:evenodd;stroke-width:0.35;stroke-linecap:square;stroke-miterlimit:4;stroke-dasharray:none" />
    <path
       id="Cut_f0129"
       d="m -8.729897,46.9299 h 5.8 v 0 z"
       stroke="#191919"
       stroke-width="0.35 px"
       style="fill:#cccccc;fill-opacity:1;fill-rule:evenodd;stroke-width:0.35;stroke-linecap:square;stroke-miterlimit:4;stroke-dasharray:none" />
    <path
       id="Cut_f0130"
       d="m 50.2701,-3.1701 c 0,-0.055 -0.045,-0.1 -0.1,-0.1 v 0 c 0.055,0 0.1,0.045 0.1,0.1 z"
       stroke="#191919"
       stroke-width="0.35 px"
       style="fill:#cccccc;fill-opacity:1;fill-rule:evenodd;stroke-width:0.35;stroke-linecap:square;stroke-miterlimit:4;stroke-dasharray:none" />
    <path
       id="Cut_f0131"
       d="m -2.929897,46.9299 v 2.9 0 z"
       stroke="#191919"
       stroke-width="0.35 px"
       style="fill:#cccccc;fill-opacity:1;fill-rule:evenodd;stroke-width:0.35;stroke-linecap:square;stroke-miterlimit:4;stroke-dasharray:none" />
    <path
       id="Cut_f0132"
       d="m 50.2701,2.8299 v -6 0 z"
       stroke="#191919"
       stroke-width="0.35 px"
       style="fill:#cccccc;fill-opacity:1;fill-rule:evenodd;stroke-width:0.35;stroke-linecap:square;stroke-miterlimit:4;stroke-dasharray:none" />
    <path
       id="Cut_f0133"
       d="m -2.929897,49.8299 c 0,0.055 0.045,0.1 0.1,0.1 v 0 c -0.055,0 -0.1,-0.045 -0.1,-0.1 z"
       stroke="#191919"
       stroke-width="0.35 px"
       style="fill:#cccccc;fill-opacity:1;fill-rule:evenodd;stroke-width:0.35;stroke-linecap:square;stroke-miterlimit:4;stroke-dasharray:none" />
    <path
       id="Cut_f0134"
       d="m 50.1701,2.9299 c 0.055,0 0.1,-0.045 0.1,-0.1 v 0 c 0,0.055 -0.045,0.1 -0.1,0.1 z"
       stroke="#191919"
       stroke-width="0.35 px"
       style="fill:#cccccc;fill-opacity:1;fill-rule:evenodd;stroke-width:0.35;stroke-linecap:square;stroke-miterlimit:4;stroke-dasharray:none" />
    <path
       id="Cut_f0135"
       d="m -2.829897,49.9299 h 6 v 0 z"
       stroke="#191919"
       stroke-width="0.35 px"
       style="fill:#cccccc;fill-opacity:1;fill-rule:evenodd;stroke-width:0.35;stroke-linecap:square;stroke-miterlimit:4;stroke-dasharray:none" />
    <path
       id="Cut_f0136"
       d="m 47.2701,2.9299 h 2.9 v 0 z"
       stroke="#191919"
       stroke-width="0.35 px"
       style="fill:#cccccc;fill-opacity:1;fill-rule:evenodd;stroke-width:0.35;stroke-linecap:square;stroke-miterlimit:4;stroke-dasharray:none" />
    <path
       id="Cut_f0137"
       d="m 3.170103,49.9299 c 0.055,0 0.1,-0.045 0.1,-0.1 v 0 c 0,0.055 -0.045,0.1 -0.1,0.1 z"
       stroke="#191919"
       stroke-width="0.35 px"
       style="fill:#cccccc;fill-opacity:1;fill-rule:evenodd;stroke-width:0.35;stroke-linecap:square;stroke-miterlimit:4;stroke-dasharray:none" />
    <path
       id="Cut_f0138"
       d="m 47.2701,8.7299 v -5.8 0 z"
       stroke="#191919"
       stroke-width="0.35 px"
       style="fill:#cccccc;fill-opacity:1;fill-rule:evenodd;stroke-width:0.35;stroke-linecap:square;stroke-miterlimit:4;stroke-dasharray:none" />
    <path
       id="Cut_f0139"
       d="m 3.270103,49.8299 v -2.9 0 z"
       stroke="#191919"
       stroke-width="0.35 px"
       style="fill:#cccccc;fill-opacity:1;fill-rule:evenodd;stroke-width:0.35;stroke-linecap:square;stroke-miterlimit:4;stroke-dasharray:none" />
    <path
       id="Cut_f0140"
       d="m 50.1701,8.7299 h -2.9 v 0 z"
       stroke="#191919"
       stroke-width="0.35 px"
       style="fill:#cccccc;fill-opacity:1;fill-rule:evenodd;stroke-width:0.35;stroke-linecap:square;stroke-miterlimit:4;stroke-dasharray:none" />
    <path
       id="Cut_f0141"
       d="m 3.270103,46.9299 h 5.8 v 0 z"
       stroke="#191919"
       stroke-width="0.35 px"
       style="fill:#cccccc;fill-opacity:1;fill-rule:evenodd;stroke-width:0.35;stroke-linecap:square;stroke-miterlimit:4;stroke-dasharray:none" />
    <path
       id="Cut_f0142"
       d="m 50.2701,8.8299 c 0,-0.055 -0.045,-0.1 -0.1,-0.1 v 0 c 0.055,0 0.1,0.045 0.1,0.1 z"
       stroke="#191919"
       stroke-width="0.35 px"
       style="fill:#cccccc;fill-opacity:1;fill-rule:evenodd;stroke-width:0.35;stroke-linecap:square;stroke-miterlimit:4;stroke-dasharray:none" />
    <path
       id="Cut_f0143"
       d="m 9.070103,46.9299 v 2.9 0 z"
       stroke="#191919"
       stroke-width="0.35 px"
       style="fill:#cccccc;fill-opacity:1;fill-rule:evenodd;stroke-width:0.35;stroke-linecap:square;stroke-miterlimit:4;stroke-dasharray:none" />
    <path
       id="Cut_f0144"
       d="m 50.2701,14.8299 v -6 0 z"
       stroke="#191919"
       stroke-width="0.35 px"
       style="fill:#cccccc;fill-opacity:1;fill-rule:evenodd;stroke-width:0.35;stroke-linecap:square;stroke-miterlimit:4;stroke-dasharray:none" />
    <path
       id="Cut_f0145"
       d="m 9.070103,49.8299 c 0,0.055 0.045,0.1 0.1,0.1 v 0 c -0.055,0 -0.1,-0.045 -0.1,-0.1 z"
       stroke="#191919"
       stroke-width="0.35 px"
       style="fill:#cccccc;fill-opacity:1;fill-rule:evenodd;stroke-width:0.35;stroke-linecap:square;stroke-miterlimit:4;stroke-dasharray:none" />
    <path
       id="Cut_f0146"
       d="m 50.1701,14.9299 c 0.055,0 0.1,-0.045 0.1,-0.1 v 0 c 0,0.055 -0.045,0.1 -0.1,0.1 z"
       stroke="#191919"
       stroke-width="0.35 px"
       style="fill:#cccccc;fill-opacity:1;fill-rule:evenodd;stroke-width:0.35;stroke-linecap:square;stroke-miterlimit:4;stroke-dasharray:none" />
    <path
       id="Cut_f0147"
       d="m 9.170103,49.9299 h 6 v 0 z"
       stroke="#191919"
       stroke-width="0.35 px"
       style="fill:#cccccc;fill-opacity:1;fill-rule:evenodd;stroke-width:0.35;stroke-linecap:square;stroke-miterlimit:4;stroke-dasharray:none" />
    <path
       id="Cut_f0148"
       d="m 47.2701,14.9299 h 2.9 v 0 z"
       stroke="#191919"
       stroke-width="0.35 px"
       style="fill:#cccccc;fill-opacity:1;fill-rule:evenodd;stroke-width:0.35;stroke-linecap:square;stroke-miterlimit:4;stroke-dasharray:none" />
    <path
       id="Cut_f0149"
       d="m 15.170103,49.9299 c 0.055,0 0.1,-0.045 0.1,-0.1 v 0 c 0,0.055 -0.045,0.1 -0.1,0.1 z"
       stroke="#191919"
       stroke-width="0.35 px"
       style="fill:#cccccc;fill-opacity:1;fill-rule:evenodd;stroke-width:0.35;stroke-linecap:square;stroke-miterlimit:4;stroke-dasharray:none" />
    <path
       id="Cut_f0150"
       d="m 47.2701,20.7299 v -5.8 0 z"
       stroke="#191919"
       stroke-width="0.35 px"
       style="fill:#cccccc;fill-opacity:1;fill-rule:evenodd;stroke-width:0.35;stroke-linecap:square;stroke-miterlimit:4;stroke-dasharray:none" />
    <path
       id="Cut_f0151"
       d="m 15.270103,49.8299 v -2.9 0 z"
       stroke="#191919"
       stroke-width="0.35 px"
       style="fill:#cccccc;fill-opacity:1;fill-rule:evenodd;stroke-width:0.35;stroke-linecap:square;stroke-miterlimit:4;stroke-dasharray:none" />
    <path
       id="Cut_f0152"
       d="m 50.1701,20.7299 h -2.9 v 0 z"
       stroke="#191919"
       stroke-width="0.35 px"
       style="fill:#cccccc;fill-opacity:1;fill-rule:evenodd;stroke-width:0.35;stroke-linecap:square;stroke-miterlimit:4;stroke-dasharray:none" />
    <path
       id="Cut_f0153"
       d="M 15.270103,46.9299 H 21.0701 v 0 z"
       stroke="#191919"
       stroke-width="0.35 px"
       style="fill:#cccccc;fill-opacity:1;fill-rule:evenodd;stroke-width:0.35;stroke-linecap:square;stroke-miterlimit:4;stroke-dasharray:none" />
    <path
       id="Cut_f0154"
       d="m 50.2701,20.8299 c 0,-0.055 -0.045,-0.1 -0.1,-0.1 v 0 c 0.055,0 0.1,0.045 0.1,0.1 z"
       stroke="#191919"
       stroke-width="0.35 px"
       style="fill:#cccccc;fill-opacity:1;fill-rule:evenodd;stroke-width:0.35;stroke-linecap:square;stroke-miterlimit:4;stroke-dasharray:none" />
    <path
       id="Cut_f0155"
       d="m 21.0701,46.9299 v 2.9 0 z"
       stroke="#191919"
       stroke-width="0.35 px"
       style="fill:#cccccc;fill-opacity:1;fill-rule:evenodd;stroke-width:0.35;stroke-linecap:square;stroke-miterlimit:4;stroke-dasharray:none" />
    <path
       id="Cut_f0156"
       d="m 50.2701,26.8299 v -6 0 z"
       stroke="#191919"
       stroke-width="0.35 px"
       style="fill:#cccccc;fill-opacity:1;fill-rule:evenodd;stroke-width:0.35;stroke-linecap:square;stroke-miterlimit:4;stroke-dasharray:none" />
    <path
       id="Cut_f0157"
       d="m 21.0701,49.8299 c 0,0.055 0.045,0.1 0.1,0.1 v 0 c -0.055,0 -0.1,-0.045 -0.1,-0.1 z"
       stroke="#191919"
       stroke-width="0.35 px"
       style="fill:#cccccc;fill-opacity:1;fill-rule:evenodd;stroke-width:0.35;stroke-linecap:square;stroke-miterlimit:4;stroke-dasharray:none" />
    <path
       id="Cut_f0158"
       d="m 50.1701,26.9299 c 0.055,0 0.1,-0.045 0.1,-0.1 v 0 c 0,0.055 -0.045,0.1 -0.1,0.1 z"
       stroke="#191919"
       stroke-width="0.35 px"
       style="fill:#cccccc;fill-opacity:1;fill-rule:evenodd;stroke-width:0.35;stroke-linecap:square;stroke-miterlimit:4;stroke-dasharray:none" />
    <path
       id="Cut_f0159"
       d="m 21.1701,49.9299 h 6 v 0 z"
       stroke="#191919"
       stroke-width="0.35 px"
       style="fill:#cccccc;fill-opacity:1;fill-rule:evenodd;stroke-width:0.35;stroke-linecap:square;stroke-miterlimit:4;stroke-dasharray:none" />
    <path
       id="Cut_f0160"
       d="m 47.2701,26.9299 h 2.9 v 0 z"
       stroke="#191919"
       stroke-width="0.35 px"
       style="fill:#cccccc;fill-opacity:1;fill-rule:evenodd;stroke-width:0.35;stroke-linecap:square;stroke-miterlimit:4;stroke-dasharray:none" />
    <path
       id="Cut_f0161"
       d="m 27.1701,49.9299 c 0.055,0 0.1,-0.045 0.1,-0.1 v 0 c 0,0.055 -0.045,0.1 -0.1,0.1 z"
       stroke="#191919"
       stroke-width="0.35 px"
       style="fill:#cccccc;fill-opacity:1;fill-rule:evenodd;stroke-width:0.35;stroke-linecap:square;stroke-miterlimit:4;stroke-dasharray:none" />
    <path
       id="Cut_f0162"
       d="m 47.2701,32.7299 v -5.8 0 z"
       stroke="#191919"
       stroke-width="0.35 px"
       style="fill:#cccccc;fill-opacity:1;fill-rule:evenodd;stroke-width:0.35;stroke-linecap:square;stroke-miterlimit:4;stroke-dasharray:none" />
    <path
       id="Cut_f0163"
       d="m 27.2701,49.8299 v -2.9 0 z"
       stroke="#191919"
       stroke-width="0.35 px"
       style="fill:#cccccc;fill-opacity:1;fill-rule:evenodd;stroke-width:0.35;stroke-linecap:square;stroke-miterlimit:4;stroke-dasharray:none" />
    <path
       id="Cut_f0164"
       d="m 50.1701,32.7299 h -2.9 v 0 z"
       stroke="#191919"
       stroke-width="0.35 px"
       style="fill:#cccccc;fill-opacity:1;fill-rule:evenodd;stroke-width:0.35;stroke-linecap:square;stroke-miterlimit:4;stroke-dasharray:none" />
    <path
       id="Cut_f0165"
       d="m 27.2701,46.9299 h 5.8 v 0 z"
       stroke="#191919"
       stroke-width="0.35 px"
       style="fill:#cccccc;fill-opacity:1;fill-rule:evenodd;stroke-width:0.35;stroke-linecap:square;stroke-miterlimit:4;stroke-dasharray:none" />
    <path
       id="Cut_f0166"
       d="m 50.2701,32.8299 c 0,-0.055 -0.045,-0.1 -0.1,-0.1 v 0 c 0.055,0 0.1,0.045 0.1,0.1 z"
       stroke="#191919"
       stroke-width="0.35 px"
       style="fill:#cccccc;fill-opacity:1;fill-rule:evenodd;stroke-width:0.35;stroke-linecap:square;stroke-miterlimit:4;stroke-dasharray:none" />
    <path
       id="Cut_f0167"
       d="m 33.0701,46.9299 v 2.9 0 z"
       stroke="#191919"
       stroke-width="0.35 px"
       style="fill:#cccccc;fill-opacity:1;fill-rule:evenodd;stroke-width:0.35;stroke-linecap:square;stroke-miterlimit:4;stroke-dasharray:none" />
    <path
       id="Cut_f0168"
       d="m 50.2701,38.8299 v -6 0 z"
       stroke="#191919"
       stroke-width="0.35 px"
       style="fill:#cccccc;fill-opacity:1;fill-rule:evenodd;stroke-width:0.35;stroke-linecap:square;stroke-miterlimit:4;stroke-dasharray:none" />
    <path
       id="Cut_f0169"
       d="m 33.0701,49.8299 c 0,0.055 0.045,0.1 0.1,0.1 v 0 c -0.055,0 -0.1,-0.045 -0.1,-0.1 z"
       stroke="#191919"
       stroke-width="0.35 px"
       style="fill:#cccccc;fill-opacity:1;fill-rule:evenodd;stroke-width:0.35;stroke-linecap:square;stroke-miterlimit:4;stroke-dasharray:none" />
    <path
       id="Cut_f0170"
       d="m 50.1701,38.9299 c 0.055,0 0.1,-0.045 0.1,-0.1 v 0 c 0,0.055 -0.045,0.1 -0.1,0.1 z"
       stroke="#191919"
       stroke-width="0.35 px"
       style="fill:#cccccc;fill-opacity:1;fill-rule:evenodd;stroke-width:0.35;stroke-linecap:square;stroke-miterlimit:4;stroke-dasharray:none" />
    <path
       id="Cut_f0171"
       d="m 33.1701,49.9299 h 6 v 0 z"
       stroke="#191919"
       stroke-width="0.35 px"
       style="fill:#cccccc;fill-opacity:1;fill-rule:evenodd;stroke-width:0.35;stroke-linecap:square;stroke-miterlimit:4;stroke-dasharray:none" />
    <path
       id="Cut_f0172"
       d="m 47.2701,38.9299 h 2.9 v 0 z"
       stroke="#191919"
       stroke-width="0.35 px"
       style="fill:#cccccc;fill-opacity:1;fill-rule:evenodd;stroke-width:0.35;stroke-linecap:square;stroke-miterlimit:4;stroke-dasharray:none" />
    <path
       id="Cut_f0173"
       d="m 39.1701,49.9299 c 0.055,0 0.1,-0.045 0.1,-0.1 v 0 c 0,0.055 -0.045,0.1 -0.1,0.1 z"
       stroke="#191919"
       stroke-width="0.35 px"
       style="fill:#cccccc;fill-opacity:1;fill-rule:evenodd;stroke-width:0.35;stroke-linecap:square;stroke-miterlimit:4;stroke-dasharray:none" />
    <path
       id="Cut_f0174"
       d="m 47.2701,46.8299 v -7.9 0 z"
       stroke="#191919"
       stroke-width="0.35 px"
       style="fill:#cccccc;fill-opacity:1;fill-rule:evenodd;stroke-width:0.35;stroke-linecap:square;stroke-miterlimit:4;stroke-dasharray:none" />
    <path
       id="Cut_f0175"
       d="m 39.2701,49.8299 v -2.9 0 z"
       stroke="#191919"
       stroke-width="0.35 px"
       style="fill:#cccccc;fill-opacity:1;fill-rule:evenodd;stroke-width:0.35;stroke-linecap:square;stroke-miterlimit:4;stroke-dasharray:none" />
    <path
       id="Cut_f0176"
       d="m 47.1701,46.9299 c 0.055,0 0.1,-0.045 0.1,-0.1 v 0 c 0,0.055 -0.045,0.1 -0.1,0.1 z"
       stroke="#191919"
       stroke-width="0.35 px"
       style="fill:#cccccc;fill-opacity:1;fill-rule:evenodd;stroke-width:0.35;stroke-linecap:square;stroke-miterlimit:4;stroke-dasharray:none" />
    <path
       id="Cut_f0177"
       d="m 39.2701,46.9299 h 7.9 v 0 z"
       stroke="#191919"
       stroke-width="0.35 px"
       style="fill:#cccccc;fill-opacity:1;fill-rule:evenodd;stroke-width:0.35;stroke-linecap:square;stroke-miterlimit:4;stroke-dasharray:none" />
    <circle
       cx="-15"
       cy="0"
       r="7"
       stroke="#191919"
       stroke-width="0.35 px"
       style="fill:#cccccc;stroke-width:0.35;stroke-linecap:square;stroke-miterlimit:4;stroke-dasharray:none"
       id="circle182" />
    <title
       id="title184">b'Cut'</title>
  </g>
</svg>
